<?xml version="1.0" encoding="UTF-8" standalone="no"?>
<!DOCTYPE svg PUBLIC "-//W3C//DTD SVG 1.1//EN"
 "http://www.w3.org/Graphics/SVG/1.1/DTD/svg11.dtd">
<!-- Generated by graphviz version 2.40.1 (20161225.0304)
 -->
<!-- Title: dependencies Pages: 1 -->
<svg width="3560pt" height="436pt"
 viewBox="0.00 0.00 3560.00 436.00" xmlns="http://www.w3.org/2000/svg" xmlns:xlink="http://www.w3.org/1999/xlink">
<g id="graph0" class="graph" transform="scale(1 1) rotate(0) translate(4 432)">
<title>dependencies</title>
<polygon fill="#ffffff" stroke="transparent" points="-4,4 -4,-432 3556,-432 3556,4 -4,4"/>
<text text-anchor="start" x="1755.0091" y="-42.4" font-family="sans-serif" font-weight="bold" font-size="14.00" fill="#000000">Legend</text>
<polygon fill="#ffffb3" stroke="transparent" points="1542,-10 1542,-30 1562,-30 1562,-10 1542,-10"/>
<text text-anchor="start" x="1565.629" y="-15.4" font-family="sans-serif" font-size="14.00" fill="#000000"> &#160;Declarations</text>
<polygon fill="#8dd3c7" stroke="transparent" points="1655,-10 1655,-30 1675,-30 1675,-10 1655,-10"/>
<text text-anchor="start" x="1678.7251" y="-15.4" font-family="sans-serif" font-size="14.00" fill="#000000"> &#160;Module</text>
<polygon fill="#80b1d3" stroke="transparent" points="1741,-10 1741,-30 1761,-30 1761,-10 1741,-10"/>
<text text-anchor="start" x="1764.7812" y="-15.4" font-family="sans-serif" font-size="14.00" fill="#000000"> &#160;Bootstrap</text>
<polygon fill="#fdb462" stroke="transparent" points="1838,-10 1838,-30 1858,-30 1858,-10 1838,-10"/>
<text text-anchor="start" x="1861.6732" y="-15.4" font-family="sans-serif" font-size="14.00" fill="#000000"> &#160;Providers</text>
<polygon fill="#fb8072" stroke="transparent" points="1934,-10 1934,-30 1954,-30 1954,-10 1934,-10"/>
<text text-anchor="start" x="1957.7258" y="-15.4" font-family="sans-serif" font-size="14.00" fill="#000000"> &#160;Exports</text>
<g id="clust1" class="cluster">
<title>cluster_AppModule</title>
<polygon fill="none" stroke="#000000" stroke-dasharray="1,5" points="2061,-222 2061,-420 2467,-420 2467,-222 2061,-222"/>
</g>
<g id="clust2" class="cluster">
<title>cluster_AppModule_declarations</title>
<polygon fill="none" stroke="#000000" points="2337,-230 2337,-282 2459,-282 2459,-230 2337,-230"/>
</g>
<g id="clust4" class="cluster">
<title>cluster_AppModule_imports</title>
<polygon fill="none" stroke="#000000" points="2069,-230 2069,-282 2329,-282 2329,-230 2069,-230"/>
</g>
<g id="clust6" class="cluster">
<title>cluster_AppModule_bootstrap</title>
<polygon fill="none" stroke="#000000" points="2195,-360 2195,-412 2319,-412 2319,-360 2195,-360"/>
</g>
<g id="clust14" class="cluster">
<title>cluster_ChatModule</title>
<polygon fill="none" stroke="#000000" stroke-dasharray="1,5" points="8,-70 8,-290 918,-290 918,-70 8,-70"/>
</g>
<g id="clust15" class="cluster">
<title>cluster_ChatModule_declarations</title>
<polygon fill="none" stroke="#000000" points="16,-78 16,-130 788,-130 788,-78 16,-78"/>
</g>
<g id="clust21" class="cluster">
<title>cluster_ChatModule_imports</title>
<polygon fill="none" stroke="#000000" points="796,-78 796,-130 910,-130 910,-78 796,-78"/>
</g>
<g id="clust22" class="cluster">
<title>cluster_ChatModule_exports</title>
<polygon fill="none" stroke="#000000" points="415,-230 415,-282 705,-282 705,-230 415,-230"/>
</g>
<g id="clust25" class="cluster">
<title>cluster_ScreenModule</title>
<polygon fill="none" stroke="#000000" stroke-dasharray="1,5" points="1650,-146 1650,-214 3008,-214 3008,-146 1650,-146"/>
</g>
<g id="clust26" class="cluster">
<title>cluster_ScreenModule_declarations</title>
<polygon fill="none" stroke="#000000" points="2176,-154 2176,-206 2676,-206 2676,-154 2176,-154"/>
</g>
<g id="clust30" class="cluster">
<title>cluster_ScreenModule_imports</title>
<polygon fill="none" stroke="#000000" points="2684,-154 2684,-206 3000,-206 3000,-154 2684,-154"/>
</g>
<g id="clust31" class="cluster">
<title>cluster_ScreenModule_exports</title>
<polygon fill="none" stroke="#000000" points="1658,-154 1658,-206 2168,-206 2168,-154 1658,-154"/>
</g>
<g id="clust34" class="cluster">
<title>cluster_SharedModule</title>
<polygon fill="none" stroke="#000000" stroke-dasharray="1,5" points="926,-146 926,-214 1642,-214 1642,-146 926,-146"/>
</g>
<g id="clust35" class="cluster">
<title>cluster_SharedModule_declarations</title>
<polygon fill="none" stroke="#000000" points="1291,-154 1291,-206 1634,-206 1634,-154 1291,-154"/>
</g>
<g id="clust39" class="cluster">
<title>cluster_SharedModule_exports</title>
<polygon fill="none" stroke="#000000" points="934,-154 934,-206 1283,-206 1283,-154 934,-154"/>
</g>
<g id="clust42" class="cluster">
<title>cluster_ShopModule</title>
<polygon fill="none" stroke="#000000" stroke-dasharray="1,5" points="2174,-70 2174,-138 3266,-138 3266,-70 2174,-70"/>
</g>
<g id="clust43" class="cluster">
<title>cluster_ShopModule_declarations</title>
<polygon fill="none" stroke="#000000" points="2490,-78 2490,-130 3258,-130 3258,-78 2490,-78"/>
</g>
<g id="clust50" class="cluster">
<title>cluster_ShopModule_exports</title>
<polygon fill="none" stroke="#000000" points="2182,-78 2182,-130 2482,-130 2482,-78 2182,-78"/>
</g>
<g id="clust53" class="cluster">
<title>cluster_SportModule</title>
<polygon fill="none" stroke="#000000" stroke-dasharray="1,5" points="2475,-222 2475,-290 2839,-290 2839,-222 2475,-222"/>
</g>
<g id="clust54" class="cluster">
<title>cluster_SportModule_declarations</title>
<polygon fill="none" stroke="#000000" points="2663,-230 2663,-282 2831,-282 2831,-230 2663,-230"/>
</g>
<g id="clust57" class="cluster">
<title>cluster_SportModule_exports</title>
<polygon fill="none" stroke="#000000" points="2483,-230 2483,-282 2655,-282 2655,-230 2483,-230"/>
</g>
<g id="clust60" class="cluster">
<title>cluster_UserModule</title>
<polygon fill="none" stroke="#000000" stroke-dasharray="1,5" points="2847,-222 2847,-290 3544,-290 3544,-222 2847,-222"/>
</g>
<g id="clust61" class="cluster">
<title>cluster_UserModule_declarations</title>
<polygon fill="none" stroke="#000000" points="3203,-230 3203,-282 3536,-282 3536,-230 3203,-230"/>
</g>
<g id="clust65" class="cluster">
<title>cluster_UserModule_exports</title>
<polygon fill="none" stroke="#000000" points="2855,-230 2855,-282 3195,-282 3195,-230 2855,-230"/>
</g>
<!-- AppComponent -->
<g id="node1" class="node">
<title>AppComponent</title>
<polygon fill="#ffffb3" stroke="#000000" points="2450.9399,-274 2345.0601,-274 2345.0601,-238 2450.9399,-238 2450.9399,-274"/>
<text text-anchor="middle" x="2398" y="-251.8" font-family="Times,serif" font-size="14.00" fill="#000000">AppComponent</text>
</g>
<!-- AppModule -->
<g id="node2" class="node">
<title>AppModule</title>
<polygon fill="#8dd3c7" stroke="#000000" points="2298.6571,-339 2295.6571,-343 2274.6571,-343 2271.6571,-339 2215.3429,-339 2215.3429,-303 2298.6571,-303 2298.6571,-339"/>
<text text-anchor="middle" x="2257" y="-316.8" font-family="Times,serif" font-size="14.00" fill="#000000">AppModule</text>
</g>
<!-- AppComponent&#45;&gt;AppModule -->
<g id="edge1" class="edge">
<title>AppComponent&#45;&gt;AppModule</title>
<path fill="none" stroke="#000000" d="M2398,-274.1061C2398,-293.3391 2398,-321 2398,-321 2398,-321 2308.9229,-321 2308.9229,-321"/>
<polygon fill="#000000" stroke="#000000" points="2308.9229,-317.5001 2298.9229,-321 2308.9229,-324.5001 2308.9229,-317.5001"/>
</g>
<!-- AppComponent  -->
<g id="node5" class="node">
<title>AppComponent </title>
<polygon fill="#80b1d3" stroke="#000000" points="2311.439,-404 2202.561,-404 2202.561,-368 2311.439,-368 2311.439,-404"/>
<text text-anchor="middle" x="2257" y="-381.8" font-family="Times,serif" font-size="14.00" fill="#000000">AppComponent </text>
</g>
<!-- AppModule&#45;&gt;AppComponent  -->
<g id="edge4" class="edge">
<title>AppModule&#45;&gt;AppComponent </title>
<path fill="none" stroke="#000000" stroke-dasharray="1,5" d="M2257,-339.1061C2257,-339.1061 2257,-357.991 2257,-357.991"/>
<polygon fill="#000000" stroke="#000000" points="2253.5001,-357.9909 2257,-367.991 2260.5001,-357.991 2253.5001,-357.9909"/>
</g>
<!-- AppRoutingModule -->
<g id="node3" class="node">
<title>AppRoutingModule</title>
<polygon fill="#8dd3c7" stroke="#000000" points="2321.2744,-274 2318.2744,-278 2297.2744,-278 2294.2744,-274 2192.7256,-274 2192.7256,-238 2321.2744,-238 2321.2744,-274"/>
<text text-anchor="middle" x="2257" y="-251.8" font-family="Times,serif" font-size="14.00" fill="#000000">AppRoutingModule</text>
</g>
<!-- AppRoutingModule&#45;&gt;AppModule -->
<g id="edge2" class="edge">
<title>AppRoutingModule&#45;&gt;AppModule</title>
<path fill="none" stroke="#000000" d="M2257,-274.1061C2257,-274.1061 2257,-292.991 2257,-292.991"/>
<polygon fill="#000000" stroke="#000000" points="2253.5001,-292.9909 2257,-302.991 2260.5001,-292.991 2253.5001,-292.9909"/>
</g>
<!-- ScreenModule -->
<g id="node4" class="node">
<title>ScreenModule</title>
<polygon fill="#8dd3c7" stroke="#000000" points="2174.6375,-274 2171.6375,-278 2150.6375,-278 2147.6375,-274 2077.3625,-274 2077.3625,-238 2174.6375,-238 2174.6375,-274"/>
<text text-anchor="middle" x="2126" y="-251.8" font-family="Times,serif" font-size="14.00" fill="#000000">ScreenModule</text>
</g>
<!-- ScreenModule&#45;&gt;AppModule -->
<g id="edge3" class="edge">
<title>ScreenModule&#45;&gt;AppModule</title>
<path fill="none" stroke="#000000" d="M2126,-274.1061C2126,-293.3391 2126,-321 2126,-321 2126,-321 2205.1906,-321 2205.1906,-321"/>
<polygon fill="#000000" stroke="#000000" points="2205.1906,-324.5001 2215.1906,-321 2205.1906,-317.5001 2205.1906,-324.5001"/>
</g>
<!-- ScreenChatComponent  -->
<g id="node21" class="node">
<title>ScreenChatComponent </title>
<polygon fill="#fb8072" stroke="#000000" points="2159.8616,-198 2010.1384,-198 2010.1384,-162 2159.8616,-162 2159.8616,-198"/>
<text text-anchor="middle" x="2085" y="-175.8" font-family="Times,serif" font-size="14.00" fill="#000000">ScreenChatComponent </text>
</g>
<!-- ScreenModule&#45;&gt;ScreenChatComponent  -->
<g id="edge21" class="edge">
<title>ScreenModule&#45;&gt;ScreenChatComponent </title>
<path fill="none" stroke="#000000" stroke-dasharray="5,2" d="M2118.4311,-237.9891C2118.4311,-237.9891 2118.4311,-208.145 2118.4311,-208.145"/>
<polygon fill="#000000" stroke="#000000" points="2121.9312,-208.145 2118.4311,-198.145 2114.9312,-208.1451 2121.9312,-208.145"/>
</g>
<!-- ScreenHomeComponent  -->
<g id="node22" class="node">
<title>ScreenHomeComponent </title>
<polygon fill="#fb8072" stroke="#000000" points="1992.6313,-198 1835.3687,-198 1835.3687,-162 1992.6313,-162 1992.6313,-198"/>
<text text-anchor="middle" x="1914" y="-175.8" font-family="Times,serif" font-size="14.00" fill="#000000">ScreenHomeComponent </text>
</g>
<!-- ScreenModule&#45;&gt;ScreenHomeComponent  -->
<g id="edge22" class="edge">
<title>ScreenModule&#45;&gt;ScreenHomeComponent </title>
<path fill="none" stroke="#000000" stroke-dasharray="5,2" d="M2077.0967,-246C2014.488,-246 1914,-246 1914,-246 1914,-246 1914,-208.0348 1914,-208.0348"/>
<polygon fill="#000000" stroke="#000000" points="1917.5001,-208.0348 1914,-198.0348 1910.5001,-208.0348 1917.5001,-208.0348"/>
</g>
<!-- ScreenShopComponent  -->
<g id="node23" class="node">
<title>ScreenShopComponent </title>
<polygon fill="#fb8072" stroke="#000000" points="1817.7023,-198 1666.2977,-198 1666.2977,-162 1817.7023,-162 1817.7023,-198"/>
<text text-anchor="middle" x="1742" y="-175.8" font-family="Times,serif" font-size="14.00" fill="#000000">ScreenShopComponent </text>
</g>
<!-- ScreenModule&#45;&gt;ScreenShopComponent  -->
<g id="edge23" class="edge">
<title>ScreenModule&#45;&gt;ScreenShopComponent </title>
<path fill="none" stroke="#000000" stroke-dasharray="5,2" d="M2076.9761,-253C1973.4545,-253 1742,-253 1742,-253 1742,-253 1742,-208.0449 1742,-208.0449"/>
<polygon fill="#000000" stroke="#000000" points="1745.5001,-208.0449 1742,-198.0449 1738.5001,-208.045 1745.5001,-208.0449"/>
</g>
<!-- ChatComponent -->
<g id="node6" class="node">
<title>ChatComponent</title>
<polygon fill="#ffffb3" stroke="#000000" points="621.7744,-122 514.2256,-122 514.2256,-86 621.7744,-86 621.7744,-122"/>
<text text-anchor="middle" x="568" y="-99.8" font-family="Times,serif" font-size="14.00" fill="#000000">ChatComponent</text>
</g>
<!-- ChatModule -->
<g id="node11" class="node">
<title>ChatModule</title>
<polygon fill="#8dd3c7" stroke="#000000" points="610.9916,-198 607.9916,-202 586.9916,-202 583.9916,-198 525.0084,-198 525.0084,-162 610.9916,-162 610.9916,-198"/>
<text text-anchor="middle" x="568" y="-175.8" font-family="Times,serif" font-size="14.00" fill="#000000">ChatModule</text>
</g>
<!-- ChatComponent&#45;&gt;ChatModule -->
<g id="edge5" class="edge">
<title>ChatComponent&#45;&gt;ChatModule</title>
<path fill="none" stroke="#000000" d="M568,-122.0109C568,-122.0109 568,-151.855 568,-151.855"/>
<polygon fill="#000000" stroke="#000000" points="564.5001,-151.8549 568,-161.855 571.5001,-151.855 564.5001,-151.8549"/>
</g>
<!-- ChatDicussionComponent -->
<g id="node7" class="node">
<title>ChatDicussionComponent</title>
<polygon fill="#ffffb3" stroke="#000000" points="495.766,-122 332.234,-122 332.234,-86 495.766,-86 495.766,-122"/>
<text text-anchor="middle" x="414" y="-99.8" font-family="Times,serif" font-size="14.00" fill="#000000">ChatDicussionComponent</text>
</g>
<!-- ChatDicussionComponent&#45;&gt;ChatModule -->
<g id="edge6" class="edge">
<title>ChatDicussionComponent&#45;&gt;ChatModule</title>
<path fill="none" stroke="#000000" d="M459.4585,-122.308C459.4585,-142.1455 459.4585,-171 459.4585,-171 459.4585,-171 514.7896,-171 514.7896,-171"/>
<polygon fill="#000000" stroke="#000000" points="514.7897,-174.5001 524.7896,-171 514.7896,-167.5001 514.7897,-174.5001"/>
</g>
<!-- ChatInputComponent -->
<g id="node8" class="node">
<title>ChatInputComponent</title>
<polygon fill="#ffffb3" stroke="#000000" points="313.8258,-122 176.1742,-122 176.1742,-86 313.8258,-86 313.8258,-122"/>
<text text-anchor="middle" x="245" y="-99.8" font-family="Times,serif" font-size="14.00" fill="#000000">ChatInputComponent</text>
</g>
<!-- ChatInputComponent&#45;&gt;ChatModule -->
<g id="edge7" class="edge">
<title>ChatInputComponent&#45;&gt;ChatModule</title>
<path fill="none" stroke="#000000" d="M245,-122.0109C245,-144.4852 245,-180 245,-180 245,-180 514.7739,-180 514.7739,-180"/>
<polygon fill="#000000" stroke="#000000" points="514.774,-183.5001 524.7739,-180 514.7739,-176.5001 514.774,-183.5001"/>
</g>
<!-- ChatTitleComponent -->
<g id="node9" class="node">
<title>ChatTitleComponent</title>
<polygon fill="#ffffb3" stroke="#000000" points="158.2134,-122 23.7866,-122 23.7866,-86 158.2134,-86 158.2134,-122"/>
<text text-anchor="middle" x="91" y="-99.8" font-family="Times,serif" font-size="14.00" fill="#000000">ChatTitleComponent</text>
</g>
<!-- ChatTitleComponent&#45;&gt;ChatModule -->
<g id="edge8" class="edge">
<title>ChatTitleComponent&#45;&gt;ChatModule</title>
<path fill="none" stroke="#000000" d="M91,-122.0263C91,-146.9773 91,-189 91,-189 91,-189 514.8281,-189 514.8281,-189"/>
<polygon fill="#000000" stroke="#000000" points="514.8282,-192.5001 524.8281,-189 514.8281,-185.5001 514.8282,-192.5001"/>
</g>
<!-- ChatTopicComponent -->
<g id="node10" class="node">
<title>ChatTopicComponent</title>
<polygon fill="#ffffb3" stroke="#000000" points="780.4327,-122 639.5673,-122 639.5673,-86 780.4327,-86 780.4327,-122"/>
<text text-anchor="middle" x="710" y="-99.8" font-family="Times,serif" font-size="14.00" fill="#000000">ChatTopicComponent</text>
</g>
<!-- ChatTopicComponent&#45;&gt;ChatModule -->
<g id="edge9" class="edge">
<title>ChatTopicComponent&#45;&gt;ChatModule</title>
<path fill="none" stroke="#000000" d="M668.2106,-122.0449C668.2106,-143.6623 668.2106,-177 668.2106,-177 668.2106,-177 621.0799,-177 621.0799,-177"/>
<polygon fill="#000000" stroke="#000000" points="621.0799,-173.5001 611.0799,-177 621.0798,-180.5001 621.0799,-173.5001"/>
</g>
<!-- ChatModule&#45;&gt;ScreenModule -->
<g id="edge16" class="edge">
<title>ChatModule&#45;&gt;ScreenModule</title>
<path fill="none" stroke="#000000" d="M611.0058,-191C661.4933,-191 738.4266,-191 738.4266,-191 738.4266,-191 738.4266,-267 738.4265,-267 738.4265,-267 2067.0231,-267 2067.0231,-267"/>
<polygon fill="#000000" stroke="#000000" points="2067.0231,-270.5001 2077.0231,-267 2067.0231,-263.5001 2067.0231,-270.5001"/>
</g>
<!-- ChatComponent  -->
<g id="node13" class="node">
<title>ChatComponent </title>
<polygon fill="#fb8072" stroke="#000000" points="696.7745,-274 585.2255,-274 585.2255,-238 696.7745,-238 696.7745,-274"/>
<text text-anchor="middle" x="641" y="-251.8" font-family="Times,serif" font-size="14.00" fill="#000000">ChatComponent </text>
</g>
<!-- ChatModule&#45;&gt;ChatComponent  -->
<g id="edge11" class="edge">
<title>ChatModule&#45;&gt;ChatComponent </title>
<path fill="none" stroke="#000000" stroke-dasharray="5,2" d="M598.1794,-198.0109C598.1794,-198.0109 598.1794,-227.855 598.1794,-227.855"/>
<polygon fill="#000000" stroke="#000000" points="594.6794,-227.8549 598.1794,-237.855 601.6794,-227.855 594.6794,-227.8549"/>
</g>
<!-- ChatTopicComponent  -->
<g id="node14" class="node">
<title>ChatTopicComponent </title>
<polygon fill="#fb8072" stroke="#000000" points="566.932,-274 423.068,-274 423.068,-238 566.932,-238 566.932,-274"/>
<text text-anchor="middle" x="495" y="-251.8" font-family="Times,serif" font-size="14.00" fill="#000000">ChatTopicComponent </text>
</g>
<!-- ChatModule&#45;&gt;ChatTopicComponent  -->
<g id="edge12" class="edge">
<title>ChatModule&#45;&gt;ChatTopicComponent </title>
<path fill="none" stroke="#000000" stroke-dasharray="5,2" d="M545.9851,-198.0109C545.9851,-198.0109 545.9851,-227.855 545.9851,-227.855"/>
<polygon fill="#000000" stroke="#000000" points="542.4852,-227.8549 545.9851,-237.855 549.4852,-227.855 542.4852,-227.8549"/>
</g>
<!-- SharedModule -->
<g id="node12" class="node">
<title>SharedModule</title>
<polygon fill="#8dd3c7" stroke="#000000" points="902.4231,-122 899.4231,-126 878.4231,-126 875.4231,-122 803.5769,-122 803.5769,-86 902.4231,-86 902.4231,-122"/>
<text text-anchor="middle" x="853" y="-99.8" font-family="Times,serif" font-size="14.00" fill="#000000">SharedModule</text>
</g>
<!-- SharedModule&#45;&gt;ScreenModule -->
<g id="edge17" class="edge">
<title>SharedModule&#45;&gt;ScreenModule</title>
<path fill="none" stroke="#000000" d="M862.8422,-122.2005C862.8422,-163.3516 862.8422,-260 862.8422,-260 862.8422,-260 2067.2567,-260 2067.2567,-260"/>
<polygon fill="#000000" stroke="#000000" points="2067.2567,-263.5001 2077.2567,-260 2067.2567,-256.5001 2067.2567,-263.5001"/>
</g>
<!-- SharedModule&#45;&gt;ChatModule -->
<g id="edge10" class="edge">
<title>SharedModule&#45;&gt;ChatModule</title>
<path fill="none" stroke="#000000" d="M843.1578,-122.1532C843.1578,-145.7566 843.1578,-184 843.1578,-184 843.1578,-184 620.9934,-184 620.9934,-184"/>
<polygon fill="#000000" stroke="#000000" points="620.9934,-180.5001 610.9934,-184 620.9934,-187.5001 620.9934,-180.5001"/>
</g>
<!-- UserModule -->
<g id="node20" class="node">
<title>UserModule</title>
<polygon fill="#8dd3c7" stroke="#000000" points="2991.9762,-198 2988.9762,-202 2967.9762,-202 2964.9762,-198 2906.0238,-198 2906.0238,-162 2991.9762,-162 2991.9762,-198"/>
<text text-anchor="middle" x="2949" y="-175.8" font-family="Times,serif" font-size="14.00" fill="#000000">UserModule</text>
</g>
<!-- SharedModule&#45;&gt;UserModule -->
<g id="edge39" class="edge">
<title>SharedModule&#45;&gt;UserModule</title>
<path fill="none" stroke="#000000" d="M823.4733,-122.1223C823.4733,-124.9729 823.4733,-127 823.4733,-127 823.4733,-127 2918.0347,-127 2918.0347,-127 2918.0347,-127 2918.0347,-151.7604 2918.0347,-151.7604"/>
<polygon fill="#000000" stroke="#000000" points="2914.5348,-151.7604 2918.0347,-161.7604 2921.5348,-151.7604 2914.5348,-151.7604"/>
</g>
<!-- SharedCardComponent  -->
<g id="node26" class="node">
<title>SharedCardComponent </title>
<polygon fill="#fb8072" stroke="#000000" points="1275.4166,-198 1124.5834,-198 1124.5834,-162 1275.4166,-162 1275.4166,-198"/>
<text text-anchor="middle" x="1200" y="-175.8" font-family="Times,serif" font-size="14.00" fill="#000000">SharedCardComponent </text>
</g>
<!-- SharedModule&#45;&gt;SharedCardComponent  -->
<g id="edge26" class="edge">
<title>SharedModule&#45;&gt;SharedCardComponent </title>
<path fill="none" stroke="#000000" stroke-dasharray="5,2" d="M902.3481,-113C998.1487,-113 1200,-113 1200,-113 1200,-113 1200,-151.692 1200,-151.692"/>
<polygon fill="#000000" stroke="#000000" points="1196.5001,-151.6919 1200,-161.692 1203.5001,-151.692 1196.5001,-151.6919"/>
</g>
<!-- SharedNavbarComponent  -->
<g id="node27" class="node">
<title>SharedNavbarComponent </title>
<polygon fill="#fb8072" stroke="#000000" points="1106.4012,-198 941.5988,-198 941.5988,-162 1106.4012,-162 1106.4012,-198"/>
<text text-anchor="middle" x="1024" y="-175.8" font-family="Times,serif" font-size="14.00" fill="#000000">SharedNavbarComponent </text>
</g>
<!-- SharedModule&#45;&gt;SharedNavbarComponent  -->
<g id="edge27" class="edge">
<title>SharedModule&#45;&gt;SharedNavbarComponent </title>
<path fill="none" stroke="#000000" stroke-dasharray="5,2" d="M882.5267,-122.0348C882.5267,-141.5762 882.5267,-170 882.5267,-170 882.5267,-170 931.295,-170 931.295,-170"/>
<polygon fill="#000000" stroke="#000000" points="931.2951,-173.5001 941.295,-170 931.295,-166.5001 931.2951,-173.5001"/>
</g>
<!-- ScreenChatComponent -->
<g id="node15" class="node">
<title>ScreenChatComponent</title>
<polygon fill="#ffffb3" stroke="#000000" points="2667.8613,-198 2522.1387,-198 2522.1387,-162 2667.8613,-162 2667.8613,-198"/>
<text text-anchor="middle" x="2595" y="-175.8" font-family="Times,serif" font-size="14.00" fill="#000000">ScreenChatComponent</text>
</g>
<!-- ScreenChatComponent&#45;&gt;ScreenModule -->
<g id="edge13" class="edge">
<title>ScreenChatComponent&#45;&gt;ScreenModule</title>
<path fill="none" stroke="#000000" d="M2563.645,-198.1432C2563.645,-204.4611 2563.645,-210 2563.645,-210 2563.645,-210 2164.7265,-210 2164.7265,-210 2164.7265,-210 2164.7265,-227.8196 2164.7265,-227.8196"/>
<polygon fill="#000000" stroke="#000000" points="2161.2266,-227.8195 2164.7265,-237.8196 2168.2266,-227.8196 2161.2266,-227.8195"/>
</g>
<!-- ScreenHomeComponent -->
<g id="node16" class="node">
<title>ScreenHomeComponent</title>
<polygon fill="#ffffb3" stroke="#000000" points="2503.6316,-198 2350.3684,-198 2350.3684,-162 2503.6316,-162 2503.6316,-198"/>
<text text-anchor="middle" x="2427" y="-175.8" font-family="Times,serif" font-size="14.00" fill="#000000">ScreenHomeComponent</text>
</g>
<!-- ScreenHomeComponent&#45;&gt;ScreenModule -->
<g id="edge14" class="edge">
<title>ScreenHomeComponent&#45;&gt;ScreenModule</title>
<path fill="none" stroke="#000000" d="M2400.452,-198.1903C2400.452,-201.5376 2400.452,-204 2400.452,-204 2400.452,-204 2162.2036,-204 2162.2036,-204 2162.2036,-204 2162.2036,-227.8129 2162.2036,-227.8129"/>
<polygon fill="#000000" stroke="#000000" points="2158.7037,-227.8129 2162.2036,-237.8129 2165.7037,-227.813 2158.7037,-227.8129"/>
</g>
<!-- ScreenShopComponent -->
<g id="node17" class="node">
<title>ScreenShopComponent</title>
<polygon fill="#ffffb3" stroke="#000000" points="2332.2021,-198 2183.7979,-198 2183.7979,-162 2332.2021,-162 2332.2021,-198"/>
<text text-anchor="middle" x="2258" y="-175.8" font-family="Times,serif" font-size="14.00" fill="#000000">ScreenShopComponent</text>
</g>
<!-- ScreenShopComponent&#45;&gt;ScreenModule -->
<g id="edge15" class="edge">
<title>ScreenShopComponent&#45;&gt;ScreenModule</title>
<path fill="none" stroke="#000000" d="M2188.2559,-198.0109C2188.2559,-220.4852 2188.2559,-256 2188.2559,-256 2188.2559,-256 2184.7473,-256 2184.7473,-256"/>
<polygon fill="#000000" stroke="#000000" points="2184.7474,-252.5001 2174.7473,-256 2184.7473,-259.5001 2184.7474,-252.5001"/>
</g>
<!-- ShopModule -->
<g id="node18" class="node">
<title>ShopModule</title>
<polygon fill="#8dd3c7" stroke="#000000" points="2780.333,-198 2777.333,-202 2756.333,-202 2753.333,-198 2691.667,-198 2691.667,-162 2780.333,-162 2780.333,-198"/>
<text text-anchor="middle" x="2736" y="-175.8" font-family="Times,serif" font-size="14.00" fill="#000000">ShopModule</text>
</g>
<!-- ShopModule&#45;&gt;ScreenModule -->
<g id="edge18" class="edge">
<title>ShopModule&#45;&gt;ScreenModule</title>
<path fill="none" stroke="#000000" d="M2736,-198.4218C2736,-207.2791 2736,-216 2736,-216 2736,-216 2167.2495,-216 2167.2495,-216 2167.2495,-216 2167.2495,-227.8726 2167.2495,-227.8726"/>
<polygon fill="#000000" stroke="#000000" points="2163.7496,-227.8725 2167.2495,-237.8726 2170.7496,-227.8726 2163.7496,-227.8725"/>
</g>
<!-- ShopButtonComponent  -->
<g id="node33" class="node">
<title>ShopButtonComponent </title>
<polygon fill="#fb8072" stroke="#000000" points="2473.733,-122 2322.267,-122 2322.267,-86 2473.733,-86 2473.733,-122"/>
<text text-anchor="middle" x="2398" y="-99.8" font-family="Times,serif" font-size="14.00" fill="#000000">ShopButtonComponent </text>
</g>
<!-- ShopModule&#45;&gt;ShopButtonComponent  -->
<g id="edge33" class="edge">
<title>ShopModule&#45;&gt;ShopButtonComponent </title>
<path fill="none" stroke="#000000" stroke-dasharray="5,2" d="M2713.9169,-161.5146C2713.9169,-149.8601 2713.9169,-137 2713.9169,-137 2713.9169,-137 2412.0254,-137 2412.0254,-137 2412.0254,-137 2412.0254,-132.0449 2412.0254,-132.0449"/>
<polygon fill="#000000" stroke="#000000" points="2415.5255,-132.0448 2412.0254,-122.0449 2408.5255,-132.0449 2415.5255,-132.0448"/>
</g>
<!-- ShopComponent  -->
<g id="node34" class="node">
<title>ShopComponent </title>
<polygon fill="#fb8072" stroke="#000000" points="2303.6157,-122 2190.3843,-122 2190.3843,-86 2303.6157,-86 2303.6157,-122"/>
<text text-anchor="middle" x="2247" y="-99.8" font-family="Times,serif" font-size="14.00" fill="#000000">ShopComponent </text>
</g>
<!-- ShopModule&#45;&gt;ShopComponent  -->
<g id="edge34" class="edge">
<title>ShopModule&#45;&gt;ShopComponent </title>
<path fill="none" stroke="#000000" stroke-dasharray="5,2" d="M2702.8754,-161.8903C2702.8754,-152.103 2702.8754,-142 2702.8754,-142 2702.8754,-142 2247,-142 2247,-142 2247,-142 2247,-132.1097 2247,-132.1097"/>
<polygon fill="#000000" stroke="#000000" points="2250.5001,-132.1096 2247,-122.1097 2243.5001,-132.1097 2250.5001,-132.1096"/>
</g>
<!-- SportModule -->
<g id="node19" class="node">
<title>SportModule</title>
<polygon fill="#8dd3c7" stroke="#000000" points="2887.8837,-198 2884.8837,-202 2863.8837,-202 2860.8837,-198 2798.1163,-198 2798.1163,-162 2887.8837,-162 2887.8837,-198"/>
<text text-anchor="middle" x="2843" y="-175.8" font-family="Times,serif" font-size="14.00" fill="#000000">SportModule</text>
</g>
<!-- SportModule&#45;&gt;ScreenModule -->
<g id="edge19" class="edge">
<title>SportModule&#45;&gt;ScreenModule</title>
<path fill="none" stroke="#000000" d="M2804.3052,-198.1025C2804.3052,-209.0859 2804.3052,-221 2804.3052,-221 2804.3052,-221 2169.7725,-221 2169.7725,-221 2169.7725,-221 2169.7725,-227.68 2169.7725,-227.68"/>
<polygon fill="#000000" stroke="#000000" points="2166.2726,-227.6799 2169.7725,-237.68 2173.2726,-227.68 2166.2726,-227.6799"/>
</g>
<!-- SportBannerComponent  -->
<g id="node36" class="node">
<title>SportBannerComponent </title>
<polygon fill="#fb8072" stroke="#000000" points="2646.5931,-274 2491.4069,-274 2491.4069,-238 2646.5931,-238 2646.5931,-274"/>
<text text-anchor="middle" x="2569" y="-251.8" font-family="Times,serif" font-size="14.00" fill="#000000">SportBannerComponent </text>
</g>
<!-- SportModule&#45;&gt;SportBannerComponent  -->
<g id="edge36" class="edge">
<title>SportModule&#45;&gt;SportBannerComponent </title>
<path fill="none" stroke="#000000" stroke-dasharray="5,2" d="M2810.5522,-198.2396C2810.5522,-213.5706 2810.5522,-233 2810.5522,-233 2810.5522,-233 2605.2207,-233 2605.2207,-233 2605.2207,-233 2605.2207,-233.4878 2605.2207,-233.4878"/>
<polygon fill="#000000" stroke="#000000" points="2601.7209,-227.8776 2605.2207,-237.8777 2608.7209,-227.8778 2601.7209,-227.8776"/>
</g>
<!-- UserModule&#45;&gt;ScreenModule -->
<g id="edge20" class="edge">
<title>UserModule&#45;&gt;ScreenModule</title>
<path fill="none" stroke="#000000" d="M2934.6706,-198.037C2934.6706,-211.2913 2934.6706,-227 2934.6706,-227 2934.6706,-227 2172.2954,-227 2172.2954,-227 2172.2954,-227 2172.2954,-228.0799 2172.2954,-228.0799"/>
<polygon fill="#000000" stroke="#000000" points="2168.7955,-227.7985 2172.2954,-237.7985 2175.7955,-227.7986 2168.7955,-227.7985"/>
</g>
<!-- UserConnexionComponent  -->
<g id="node39" class="node">
<title>UserConnexionComponent </title>
<polygon fill="#fb8072" stroke="#000000" points="3035.2009,-274 2862.7991,-274 2862.7991,-238 3035.2009,-238 3035.2009,-274"/>
<text text-anchor="middle" x="2949" y="-251.8" font-family="Times,serif" font-size="14.00" fill="#000000">UserConnexionComponent </text>
</g>
<!-- UserModule&#45;&gt;UserConnexionComponent  -->
<g id="edge40" class="edge">
<title>UserModule&#45;&gt;UserConnexionComponent </title>
<path fill="none" stroke="#000000" stroke-dasharray="5,2" d="M2963.3294,-198.0109C2963.3294,-198.0109 2963.3294,-227.855 2963.3294,-227.855"/>
<polygon fill="#000000" stroke="#000000" points="2959.8295,-227.8549 2963.3294,-237.855 2966.8295,-227.855 2959.8295,-227.8549"/>
</g>
<!-- UserListComponent  -->
<g id="node40" class="node">
<title>UserListComponent </title>
<polygon fill="#fb8072" stroke="#000000" points="3186.5372,-274 3053.4628,-274 3053.4628,-238 3186.5372,-238 3186.5372,-274"/>
<text text-anchor="middle" x="3120" y="-251.8" font-family="Times,serif" font-size="14.00" fill="#000000">UserListComponent </text>
</g>
<!-- UserModule&#45;&gt;UserListComponent  -->
<g id="edge41" class="edge">
<title>UserModule&#45;&gt;UserListComponent </title>
<path fill="none" stroke="#000000" stroke-dasharray="5,2" d="M2992.2928,-189C3028.682,-189 3074.7989,-189 3074.7989,-189 3074.7989,-189 3074.7989,-227.692 3074.7989,-227.692"/>
<polygon fill="#000000" stroke="#000000" points="3071.299,-227.6919 3074.7989,-237.692 3078.299,-227.692 3071.299,-227.6919"/>
</g>
<!-- SharedCardComponent -->
<g id="node24" class="node">
<title>SharedCardComponent</title>
<polygon fill="#ffffb3" stroke="#000000" points="1625.9172,-198 1478.0828,-198 1478.0828,-162 1625.9172,-162 1625.9172,-198"/>
<text text-anchor="middle" x="1552" y="-175.8" font-family="Times,serif" font-size="14.00" fill="#000000">SharedCardComponent</text>
</g>
<!-- SharedCardComponent&#45;&gt;SharedModule -->
<g id="edge24" class="edge">
<title>SharedCardComponent&#45;&gt;SharedModule</title>
<path fill="none" stroke="#000000" d="M1552,-161.9737C1552,-137.0227 1552,-95 1552,-95 1552,-95 912.4308,-95 912.4308,-95"/>
<polygon fill="#000000" stroke="#000000" points="912.4309,-91.5001 902.4308,-95 912.4308,-98.5001 912.4309,-91.5001"/>
</g>
<!-- SharedNavbarComponent -->
<g id="node25" class="node">
<title>SharedNavbarComponent</title>
<polygon fill="#ffffb3" stroke="#000000" points="1460.9017,-198 1299.0983,-198 1299.0983,-162 1460.9017,-162 1460.9017,-198"/>
<text text-anchor="middle" x="1380" y="-175.8" font-family="Times,serif" font-size="14.00" fill="#000000">SharedNavbarComponent</text>
</g>
<!-- SharedNavbarComponent&#45;&gt;SharedModule -->
<g id="edge25" class="edge">
<title>SharedNavbarComponent&#45;&gt;SharedModule</title>
<path fill="none" stroke="#000000" d="M1380,-161.9891C1380,-139.5148 1380,-104 1380,-104 1380,-104 912.5789,-104 912.5789,-104"/>
<polygon fill="#000000" stroke="#000000" points="912.5789,-100.5001 902.5789,-104 912.5788,-107.5001 912.5789,-100.5001"/>
</g>
<!-- ShopButtonComponent -->
<g id="node28" class="node">
<title>ShopButtonComponent</title>
<polygon fill="#ffffb3" stroke="#000000" points="3096.233,-122 2947.767,-122 2947.767,-86 3096.233,-86 3096.233,-122"/>
<text text-anchor="middle" x="3022" y="-99.8" font-family="Times,serif" font-size="14.00" fill="#000000">ShopButtonComponent</text>
</g>
<!-- ShopButtonComponent&#45;&gt;ShopModule -->
<g id="edge28" class="edge">
<title>ShopButtonComponent&#45;&gt;ShopModule</title>
<path fill="none" stroke="#000000" d="M2969.9359,-122.1467C2969.9359,-135.7395 2969.9359,-152 2969.9359,-152 2969.9359,-152 2758.0831,-152 2758.0831,-152 2758.0831,-152 2758.0831,-152.9793 2758.0831,-152.9793"/>
<polygon fill="#000000" stroke="#000000" points="2754.5832,-151.793 2758.0831,-161.793 2761.5832,-151.7931 2754.5832,-151.793"/>
</g>
<!-- ShopComponent -->
<g id="node29" class="node">
<title>ShopComponent</title>
<polygon fill="#ffffb3" stroke="#000000" points="2930.1151,-122 2819.8849,-122 2819.8849,-86 2930.1151,-86 2930.1151,-122"/>
<text text-anchor="middle" x="2875" y="-99.8" font-family="Times,serif" font-size="14.00" fill="#000000">ShopComponent</text>
</g>
<!-- ShopComponent&#45;&gt;ShopModule -->
<g id="edge29" class="edge">
<title>ShopComponent&#45;&gt;ShopModule</title>
<path fill="none" stroke="#000000" d="M2853.9422,-122.4854C2853.9422,-134.1399 2853.9422,-147 2853.9422,-147 2853.9422,-147 2747.0416,-147 2747.0416,-147 2747.0416,-147 2747.0416,-151.9551 2747.0416,-151.9551"/>
<polygon fill="#000000" stroke="#000000" points="2743.5416,-151.9551 2747.0416,-161.9551 2750.5416,-151.9552 2743.5416,-151.9551"/>
</g>
<!-- ShopListComponent -->
<g id="node30" class="node">
<title>ShopListComponent</title>
<polygon fill="#ffffb3" stroke="#000000" points="2801.8934,-122 2670.1066,-122 2670.1066,-86 2801.8934,-86 2801.8934,-122"/>
<text text-anchor="middle" x="2736" y="-99.8" font-family="Times,serif" font-size="14.00" fill="#000000">ShopListComponent</text>
</g>
<!-- ShopListComponent&#45;&gt;ShopModule -->
<g id="edge30" class="edge">
<title>ShopListComponent&#45;&gt;ShopModule</title>
<path fill="none" stroke="#000000" d="M2736,-122.0109C2736,-122.0109 2736,-151.855 2736,-151.855"/>
<polygon fill="#000000" stroke="#000000" points="2732.5001,-151.8549 2736,-161.855 2739.5001,-151.855 2732.5001,-151.8549"/>
</g>
<!-- ShopProductComponent -->
<g id="node31" class="node">
<title>ShopProductComponent</title>
<polygon fill="#ffffb3" stroke="#000000" points="2651.6638,-122 2498.3362,-122 2498.3362,-86 2651.6638,-86 2651.6638,-122"/>
<text text-anchor="middle" x="2575" y="-99.8" font-family="Times,serif" font-size="14.00" fill="#000000">ShopProductComponent</text>
</g>
<!-- ShopProductComponent&#45;&gt;ShopModule -->
<g id="edge31" class="edge">
<title>ShopProductComponent&#45;&gt;ShopModule</title>
<path fill="none" stroke="#000000" d="M2586.9506,-122.207C2586.9506,-127.5549 2586.9506,-132 2586.9506,-132 2586.9506,-132 2724.9585,-132 2724.9585,-132 2724.9585,-132 2724.9585,-151.8533 2724.9585,-151.8533"/>
<polygon fill="#000000" stroke="#000000" points="2721.4585,-151.8532 2724.9585,-161.8533 2728.4585,-151.8533 2721.4585,-151.8532"/>
</g>
<!-- ShopTitleComponent -->
<g id="node32" class="node">
<title>ShopTitleComponent</title>
<polygon fill="#ffffb3" stroke="#000000" points="3250.0547,-122 3113.9453,-122 3113.9453,-86 3250.0547,-86 3250.0547,-122"/>
<text text-anchor="middle" x="3182" y="-99.8" font-family="Times,serif" font-size="14.00" fill="#000000">ShopTitleComponent</text>
</g>
<!-- ShopTitleComponent&#45;&gt;ShopModule -->
<g id="edge32" class="edge">
<title>ShopTitleComponent&#45;&gt;ShopModule</title>
<path fill="none" stroke="#000000" d="M3150.1208,-122.2396C3150.1208,-137.5706 3150.1208,-157 3150.1208,-157 3150.1208,-157 2769.1247,-157 2769.1247,-157 2769.1247,-157 2769.1247,-157.4878 2769.1247,-157.4878"/>
<polygon fill="#000000" stroke="#000000" points="2765.6249,-151.8776 2769.1247,-161.8777 2772.6249,-151.8778 2765.6249,-151.8776"/>
</g>
<!-- SportBannerComponent -->
<g id="node35" class="node">
<title>SportBannerComponent</title>
<polygon fill="#ffffb3" stroke="#000000" points="2823.0926,-274 2670.9074,-274 2670.9074,-238 2823.0926,-238 2823.0926,-274"/>
<text text-anchor="middle" x="2747" y="-251.8" font-family="Times,serif" font-size="14.00" fill="#000000">SportBannerComponent</text>
</g>
<!-- SportBannerComponent&#45;&gt;SportModule -->
<g id="edge35" class="edge">
<title>SportBannerComponent&#45;&gt;SportModule</title>
<path fill="none" stroke="#000000" d="M2816.7993,-237.9891C2816.7993,-237.9891 2816.7993,-208.145 2816.7993,-208.145"/>
<polygon fill="#000000" stroke="#000000" points="2820.2994,-208.145 2816.7993,-198.145 2813.2994,-208.1451 2820.2994,-208.145"/>
</g>
<!-- UserConnexionComponent -->
<g id="node37" class="node">
<title>UserConnexionComponent</title>
<polygon fill="#ffffb3" stroke="#000000" points="3380.7007,-274 3211.2993,-274 3211.2993,-238 3380.7007,-238 3380.7007,-274"/>
<text text-anchor="middle" x="3296" y="-251.8" font-family="Times,serif" font-size="14.00" fill="#000000">UserConnexionComponent</text>
</g>
<!-- UserConnexionComponent&#45;&gt;UserModule -->
<g id="edge37" class="edge">
<title>UserConnexionComponent&#45;&gt;UserModule</title>
<path fill="none" stroke="#000000" d="M3230.8384,-237.9891C3230.8384,-215.5148 3230.8384,-180 3230.8384,-180 3230.8384,-180 3002.112,-180 3002.112,-180"/>
<polygon fill="#000000" stroke="#000000" points="3002.112,-176.5001 2992.112,-180 3002.1119,-183.5001 3002.112,-176.5001"/>
</g>
<!-- UserListComponent -->
<g id="node38" class="node">
<title>UserListComponent</title>
<polygon fill="#ffffb3" stroke="#000000" points="3527.538,-274 3398.462,-274 3398.462,-238 3527.538,-238 3527.538,-274"/>
<text text-anchor="middle" x="3463" y="-251.8" font-family="Times,serif" font-size="14.00" fill="#000000">UserListComponent</text>
</g>
<!-- UserListComponent&#45;&gt;UserModule -->
<g id="edge38" class="edge">
<title>UserListComponent&#45;&gt;UserModule</title>
<path fill="none" stroke="#000000" d="M3463,-237.9737C3463,-213.0227 3463,-171 3463,-171 3463,-171 3002.3804,-171 3002.3804,-171"/>
<polygon fill="#000000" stroke="#000000" points="3002.3804,-167.5001 2992.3804,-171 3002.3803,-174.5001 3002.3804,-167.5001"/>
</g>
</g>
</svg>
