<?xml version="1.0" encoding="UTF-8" standalone="no"?>
<!DOCTYPE svg PUBLIC "-//W3C//DTD SVG 1.1//EN"
 "http://www.w3.org/Graphics/SVG/1.1/DTD/svg11.dtd">
<!-- Generated by graphviz version 2.40.1 (20161225.0304)
 -->
<!-- Title: dependencies Pages: 1 -->
<svg width="1084pt" height="284pt"
 viewBox="0.00 0.00 1084.00 284.00" xmlns="http://www.w3.org/2000/svg" xmlns:xlink="http://www.w3.org/1999/xlink">
<g id="graph0" class="graph" transform="scale(1 1) rotate(0) translate(4 280)">
<title>dependencies</title>
<polygon fill="#ffffff" stroke="transparent" points="-4,4 -4,-280 1080,-280 1080,4 -4,4"/>
<text text-anchor="start" x="517.0091" y="-42.4" font-family="sans-serif" font-weight="bold" font-size="14.00" fill="#000000">Legend</text>
<polygon fill="#ffffb3" stroke="transparent" points="304,-10 304,-30 324,-30 324,-10 304,-10"/>
<text text-anchor="start" x="327.629" y="-15.4" font-family="sans-serif" font-size="14.00" fill="#000000"> &#160;Declarations</text>
<polygon fill="#8dd3c7" stroke="transparent" points="417,-10 417,-30 437,-30 437,-10 417,-10"/>
<text text-anchor="start" x="440.7251" y="-15.4" font-family="sans-serif" font-size="14.00" fill="#000000"> &#160;Module</text>
<polygon fill="#80b1d3" stroke="transparent" points="503,-10 503,-30 523,-30 523,-10 503,-10"/>
<text text-anchor="start" x="526.7812" y="-15.4" font-family="sans-serif" font-size="14.00" fill="#000000"> &#160;Bootstrap</text>
<polygon fill="#fdb462" stroke="transparent" points="600,-10 600,-30 620,-30 620,-10 600,-10"/>
<text text-anchor="start" x="623.6732" y="-15.4" font-family="sans-serif" font-size="14.00" fill="#000000"> &#160;Providers</text>
<polygon fill="#fb8072" stroke="transparent" points="696,-10 696,-30 716,-30 716,-10 696,-10"/>
<text text-anchor="start" x="719.7258" y="-15.4" font-family="sans-serif" font-size="14.00" fill="#000000"> &#160;Exports</text>
<g id="clust1" class="cluster">
<title>cluster_ScreenModule</title>
<polygon fill="none" stroke="#000000" stroke-dasharray="1,5" points="8,-70 8,-268 1068,-268 1068,-70 8,-70"/>
</g>
<g id="clust2" class="cluster">
<title>cluster_ScreenModule_declarations</title>
<polygon fill="none" stroke="#000000" points="560,-78 560,-130 1060,-130 1060,-78 560,-78"/>
</g>
<g id="clust6" class="cluster">
<title>cluster_ScreenModule_imports</title>
<polygon fill="none" stroke="#000000" points="16,-78 16,-130 552,-130 552,-78 16,-78"/>
</g>
<g id="clust7" class="cluster">
<title>cluster_ScreenModule_exports</title>
<polygon fill="none" stroke="#000000" points="190,-208 190,-260 700,-260 700,-208 190,-208"/>
</g>
<!-- ScreenChatComponent -->
<g id="node1" class="node">
<title>ScreenChatComponent</title>
<polygon fill="#ffffb3" stroke="#000000" points="1051.8613,-122 906.1387,-122 906.1387,-86 1051.8613,-86 1051.8613,-122"/>
<text text-anchor="middle" x="979" y="-99.8" font-family="Times,serif" font-size="14.00" fill="#000000">ScreenChatComponent</text>
</g>
<!-- ScreenModule -->
<g id="node4" class="node">
<title>ScreenModule</title>
<polygon fill="#8dd3c7" stroke="#000000" points="494.6375,-187 491.6375,-191 470.6375,-191 467.6375,-187 397.3625,-187 397.3625,-151 494.6375,-151 494.6375,-187"/>
<text text-anchor="middle" x="446" y="-164.8" font-family="Times,serif" font-size="14.00" fill="#000000">ScreenModule</text>
</g>
<!-- ScreenChatComponent&#45;&gt;ScreenModule -->
<g id="edge1" class="edge">
<title>ScreenChatComponent&#45;&gt;ScreenModule</title>
<path fill="none" stroke="#000000" d="M979,-122.1289C979,-142.5724 979,-173 979,-173 979,-173 504.7132,-173 504.7132,-173"/>
<polygon fill="#000000" stroke="#000000" points="504.7132,-169.5001 494.7132,-173 504.7131,-176.5001 504.7132,-169.5001"/>
</g>
<!-- ScreenHomeComponent -->
<g id="node2" class="node">
<title>ScreenHomeComponent</title>
<polygon fill="#ffffb3" stroke="#000000" points="887.6316,-122 734.3684,-122 734.3684,-86 887.6316,-86 887.6316,-122"/>
<text text-anchor="middle" x="811" y="-99.8" font-family="Times,serif" font-size="14.00" fill="#000000">ScreenHomeComponent</text>
</g>
<!-- ScreenHomeComponent&#45;&gt;ScreenModule -->
<g id="edge2" class="edge">
<title>ScreenHomeComponent&#45;&gt;ScreenModule</title>
<path fill="none" stroke="#000000" d="M811,-122.2667C811,-140.5552 811,-166 811,-166 811,-166 504.8468,-166 504.8468,-166"/>
<polygon fill="#000000" stroke="#000000" points="504.8468,-162.5001 494.8468,-166 504.8468,-169.5001 504.8468,-162.5001"/>
</g>
<!-- ScreenShopComponent -->
<g id="node3" class="node">
<title>ScreenShopComponent</title>
<polygon fill="#ffffb3" stroke="#000000" points="716.2021,-122 567.7979,-122 567.7979,-86 716.2021,-86 716.2021,-122"/>
<text text-anchor="middle" x="642" y="-99.8" font-family="Times,serif" font-size="14.00" fill="#000000">ScreenShopComponent</text>
</g>
<!-- ScreenShopComponent&#45;&gt;ScreenModule -->
<g id="edge3" class="edge">
<title>ScreenShopComponent&#45;&gt;ScreenModule</title>
<path fill="none" stroke="#000000" d="M629.7898,-122.0091C629.7898,-138.0494 629.7898,-159 629.7898,-159 629.7898,-159 504.7698,-159 504.7698,-159"/>
<polygon fill="#000000" stroke="#000000" points="504.7698,-155.5001 494.7698,-159 504.7697,-162.5001 504.7698,-155.5001"/>
</g>
<!-- ScreenChatComponent  -->
<g id="node10" class="node">
<title>ScreenChatComponent </title>
<polygon fill="#fb8072" stroke="#000000" points="691.8616,-252 542.1384,-252 542.1384,-216 691.8616,-216 691.8616,-252"/>
<text text-anchor="middle" x="617" y="-229.8" font-family="Times,serif" font-size="14.00" fill="#000000">ScreenChatComponent </text>
</g>
<!-- ScreenModule&#45;&gt;ScreenChatComponent  -->
<g id="edge9" class="edge">
<title>ScreenModule&#45;&gt;ScreenChatComponent </title>
<path fill="none" stroke="#000000" stroke-dasharray="5,2" d="M494.8648,-180C524.2291,-180 555.9474,-180 555.9474,-180 555.9474,-180 555.9474,-205.7181 555.9474,-205.7181"/>
<polygon fill="#000000" stroke="#000000" points="552.4475,-205.718 555.9474,-215.7181 559.4475,-205.7181 552.4475,-205.718"/>
</g>
<!-- ScreenHomeComponent  -->
<g id="node11" class="node">
<title>ScreenHomeComponent </title>
<polygon fill="#fb8072" stroke="#000000" points="524.6313,-252 367.3687,-252 367.3687,-216 524.6313,-216 524.6313,-252"/>
<text text-anchor="middle" x="446" y="-229.8" font-family="Times,serif" font-size="14.00" fill="#000000">ScreenHomeComponent </text>
</g>
<!-- ScreenModule&#45;&gt;ScreenHomeComponent  -->
<g id="edge10" class="edge">
<title>ScreenModule&#45;&gt;ScreenHomeComponent </title>
<path fill="none" stroke="#000000" stroke-dasharray="5,2" d="M446,-187.1061C446,-187.1061 446,-205.991 446,-205.991"/>
<polygon fill="#000000" stroke="#000000" points="442.5001,-205.9909 446,-215.991 449.5001,-205.991 442.5001,-205.9909"/>
</g>
<!-- ScreenShopComponent  -->
<g id="node12" class="node">
<title>ScreenShopComponent </title>
<polygon fill="#fb8072" stroke="#000000" points="349.7023,-252 198.2977,-252 198.2977,-216 349.7023,-216 349.7023,-252"/>
<text text-anchor="middle" x="274" y="-229.8" font-family="Times,serif" font-size="14.00" fill="#000000">ScreenShopComponent </text>
</g>
<!-- ScreenModule&#45;&gt;ScreenShopComponent  -->
<g id="edge11" class="edge">
<title>ScreenModule&#45;&gt;ScreenShopComponent </title>
<path fill="none" stroke="#000000" stroke-dasharray="5,2" d="M397.0839,-180C371.6537,-180 345.82,-180 345.82,-180 345.82,-180 345.82,-205.7181 345.82,-205.7181"/>
<polygon fill="#000000" stroke="#000000" points="342.32,-205.718 345.82,-215.7181 349.32,-205.7181 342.32,-205.718"/>
</g>
<!-- ChatModule -->
<g id="node5" class="node">
<title>ChatModule</title>
<polygon fill="#8dd3c7" stroke="#000000" points="543.9916,-122 540.9916,-126 519.9916,-126 516.9916,-122 458.0084,-122 458.0084,-86 543.9916,-86 543.9916,-122"/>
<text text-anchor="middle" x="501" y="-99.8" font-family="Times,serif" font-size="14.00" fill="#000000">ChatModule</text>
</g>
<!-- ChatModule&#45;&gt;ScreenModule -->
<g id="edge4" class="edge">
<title>ChatModule&#45;&gt;ScreenModule</title>
<path fill="none" stroke="#000000" d="M476.4113,-122.1061C476.4113,-122.1061 476.4113,-140.991 476.4113,-140.991"/>
<polygon fill="#000000" stroke="#000000" points="472.9114,-140.9909 476.4113,-150.991 479.9114,-140.991 472.9114,-140.9909"/>
</g>
<!-- SharedModule -->
<g id="node6" class="node">
<title>SharedModule</title>
<polygon fill="#8dd3c7" stroke="#000000" points="440.4231,-122 437.4231,-126 416.4231,-126 413.4231,-122 341.5769,-122 341.5769,-86 440.4231,-86 440.4231,-122"/>
<text text-anchor="middle" x="391" y="-99.8" font-family="Times,serif" font-size="14.00" fill="#000000">SharedModule</text>
</g>
<!-- SharedModule&#45;&gt;ScreenModule -->
<g id="edge5" class="edge">
<title>SharedModule&#45;&gt;ScreenModule</title>
<path fill="none" stroke="#000000" d="M418.6964,-122.1061C418.6964,-122.1061 418.6964,-140.991 418.6964,-140.991"/>
<polygon fill="#000000" stroke="#000000" points="415.1964,-140.9909 418.6964,-150.991 422.1964,-140.991 415.1964,-140.9909"/>
</g>
<!-- ShopModule -->
<g id="node7" class="node">
<title>ShopModule</title>
<polygon fill="#8dd3c7" stroke="#000000" points="324.333,-122 321.333,-126 300.333,-126 297.333,-122 235.667,-122 235.667,-86 324.333,-86 324.333,-122"/>
<text text-anchor="middle" x="280" y="-99.8" font-family="Times,serif" font-size="14.00" fill="#000000">ShopModule</text>
</g>
<!-- ShopModule&#45;&gt;ScreenModule -->
<g id="edge6" class="edge">
<title>ShopModule&#45;&gt;ScreenModule</title>
<path fill="none" stroke="#000000" d="M280,-122.0091C280,-138.0494 280,-159 280,-159 280,-159 387.0924,-159 387.0924,-159"/>
<polygon fill="#000000" stroke="#000000" points="387.0924,-162.5001 397.0924,-159 387.0923,-155.5001 387.0924,-162.5001"/>
</g>
<!-- SportModule -->
<g id="node8" class="node">
<title>SportModule</title>
<polygon fill="#8dd3c7" stroke="#000000" points="217.8837,-122 214.8837,-126 193.8837,-126 190.8837,-122 128.1163,-122 128.1163,-86 217.8837,-86 217.8837,-122"/>
<text text-anchor="middle" x="173" y="-99.8" font-family="Times,serif" font-size="14.00" fill="#000000">SportModule</text>
</g>
<!-- SportModule&#45;&gt;ScreenModule -->
<g id="edge7" class="edge">
<title>SportModule&#45;&gt;ScreenModule</title>
<path fill="none" stroke="#000000" d="M208.0454,-122.2667C208.0454,-140.5552 208.0454,-166 208.0454,-166 208.0454,-166 387.2721,-166 387.2721,-166"/>
<polygon fill="#000000" stroke="#000000" points="387.2722,-169.5001 397.2721,-166 387.2721,-162.5001 387.2722,-169.5001"/>
</g>
<!-- UserModule -->
<g id="node9" class="node">
<title>UserModule</title>
<polygon fill="#8dd3c7" stroke="#000000" points="109.9762,-122 106.9762,-126 85.9762,-126 82.9762,-122 24.0238,-122 24.0238,-86 109.9762,-86 109.9762,-122"/>
<text text-anchor="middle" x="67" y="-99.8" font-family="Times,serif" font-size="14.00" fill="#000000">UserModule</text>
</g>
<!-- UserModule&#45;&gt;ScreenModule -->
<g id="edge8" class="edge">
<title>UserModule&#45;&gt;ScreenModule</title>
<path fill="none" stroke="#000000" d="M67,-122.1289C67,-142.5724 67,-173 67,-173 67,-173 387.2283,-173 387.2283,-173"/>
<polygon fill="#000000" stroke="#000000" points="387.2283,-176.5001 397.2283,-173 387.2282,-169.5001 387.2283,-176.5001"/>
</g>
</g>
</svg>
