<?xml version="1.0" encoding="UTF-8" standalone="no"?>
<!DOCTYPE svg PUBLIC "-//W3C//DTD SVG 1.1//EN"
 "http://www.w3.org/Graphics/SVG/1.1/DTD/svg11.dtd">
<!-- Generated by graphviz version 2.40.1 (20161225.0304)
 -->
<!-- Title: dependencies Pages: 1 -->
<svg width="812pt" height="284pt"
 viewBox="0.00 0.00 812.00 284.00" xmlns="http://www.w3.org/2000/svg" xmlns:xlink="http://www.w3.org/1999/xlink">
<g id="graph0" class="graph" transform="scale(1 1) rotate(0) translate(4 280)">
<title>dependencies</title>
<polygon fill="#ffffff" stroke="transparent" points="-4,4 -4,-280 808,-280 808,4 -4,4"/>
<text text-anchor="start" x="381.0091" y="-42.4" font-family="sans-serif" font-weight="bold" font-size="14.00" fill="#000000">Legend</text>
<polygon fill="#ffffb3" stroke="transparent" points="168,-10 168,-30 188,-30 188,-10 168,-10"/>
<text text-anchor="start" x="191.629" y="-15.4" font-family="sans-serif" font-size="14.00" fill="#000000"> &#160;Declarations</text>
<polygon fill="#8dd3c7" stroke="transparent" points="281,-10 281,-30 301,-30 301,-10 281,-10"/>
<text text-anchor="start" x="304.7251" y="-15.4" font-family="sans-serif" font-size="14.00" fill="#000000"> &#160;Module</text>
<polygon fill="#80b1d3" stroke="transparent" points="367,-10 367,-30 387,-30 387,-10 367,-10"/>
<text text-anchor="start" x="390.7812" y="-15.4" font-family="sans-serif" font-size="14.00" fill="#000000"> &#160;Bootstrap</text>
<polygon fill="#fdb462" stroke="transparent" points="464,-10 464,-30 484,-30 484,-10 464,-10"/>
<text text-anchor="start" x="487.6732" y="-15.4" font-family="sans-serif" font-size="14.00" fill="#000000"> &#160;Providers</text>
<polygon fill="#fb8072" stroke="transparent" points="560,-10 560,-30 580,-30 580,-10 560,-10"/>
<text text-anchor="start" x="583.7258" y="-15.4" font-family="sans-serif" font-size="14.00" fill="#000000"> &#160;Exports</text>
<g id="clust1" class="cluster">
<title>cluster_ChatModule</title>
<polygon fill="none" stroke="#000000" stroke-dasharray="1,5" points="8,-70 8,-268 796,-268 796,-70 8,-70"/>
</g>
<g id="clust2" class="cluster">
<title>cluster_ChatModule_declarations</title>
<polygon fill="none" stroke="#000000" points="16,-78 16,-130 788,-130 788,-78 16,-78"/>
</g>
<g id="clust9" class="cluster">
<title>cluster_ChatModule_exports</title>
<polygon fill="none" stroke="#000000" points="250,-208 250,-260 540,-260 540,-208 250,-208"/>
</g>
<!-- ChatComponent -->
<g id="node1" class="node">
<title>ChatComponent</title>
<polygon fill="#ffffb3" stroke="#000000" points="779.7744,-122 672.2256,-122 672.2256,-86 779.7744,-86 779.7744,-122"/>
<text text-anchor="middle" x="726" y="-99.8" font-family="Times,serif" font-size="14.00" fill="#000000">ChatComponent</text>
</g>
<!-- ChatModule -->
<g id="node6" class="node">
<title>ChatModule</title>
<polygon fill="#8dd3c7" stroke="#000000" points="445.9916,-187 442.9916,-191 421.9916,-191 418.9916,-187 360.0084,-187 360.0084,-151 445.9916,-151 445.9916,-187"/>
<text text-anchor="middle" x="403" y="-164.8" font-family="Times,serif" font-size="14.00" fill="#000000">ChatModule</text>
</g>
<!-- ChatComponent&#45;&gt;ChatModule -->
<g id="edge1" class="edge">
<title>ChatComponent&#45;&gt;ChatModule</title>
<path fill="none" stroke="#000000" d="M726,-122.2843C726,-143.3211 726,-175 726,-175 726,-175 456.2261,-175 456.2261,-175"/>
<polygon fill="#000000" stroke="#000000" points="456.2261,-171.5001 446.2261,-175 456.226,-178.5001 456.2261,-171.5001"/>
</g>
<!-- ChatDicussionComponent -->
<g id="node2" class="node">
<title>ChatDicussionComponent</title>
<polygon fill="#ffffb3" stroke="#000000" points="653.766,-122 490.234,-122 490.234,-86 653.766,-86 653.766,-122"/>
<text text-anchor="middle" x="572" y="-99.8" font-family="Times,serif" font-size="14.00" fill="#000000">ChatDicussionComponent</text>
</g>
<!-- ChatDicussionComponent&#45;&gt;ChatModule -->
<g id="edge2" class="edge">
<title>ChatDicussionComponent&#45;&gt;ChatModule</title>
<path fill="none" stroke="#000000" d="M510.8771,-122.0225C510.8771,-139.3734 510.8771,-163 510.8771,-163 510.8771,-163 456.2562,-163 456.2562,-163"/>
<polygon fill="#000000" stroke="#000000" points="456.2562,-159.5001 446.2562,-163 456.2561,-166.5001 456.2562,-159.5001"/>
</g>
<!-- ChatInputComponent -->
<g id="node3" class="node">
<title>ChatInputComponent</title>
<polygon fill="#ffffb3" stroke="#000000" points="471.8258,-122 334.1742,-122 334.1742,-86 471.8258,-86 471.8258,-122"/>
<text text-anchor="middle" x="403" y="-99.8" font-family="Times,serif" font-size="14.00" fill="#000000">ChatInputComponent</text>
</g>
<!-- ChatInputComponent&#45;&gt;ChatModule -->
<g id="edge3" class="edge">
<title>ChatInputComponent&#45;&gt;ChatModule</title>
<path fill="none" stroke="#000000" d="M403,-122.1061C403,-122.1061 403,-140.991 403,-140.991"/>
<polygon fill="#000000" stroke="#000000" points="399.5001,-140.9909 403,-150.991 406.5001,-140.991 399.5001,-140.9909"/>
</g>
<!-- ChatTitleComponent -->
<g id="node4" class="node">
<title>ChatTitleComponent</title>
<polygon fill="#ffffb3" stroke="#000000" points="316.2134,-122 181.7866,-122 181.7866,-86 316.2134,-86 316.2134,-122"/>
<text text-anchor="middle" x="249" y="-99.8" font-family="Times,serif" font-size="14.00" fill="#000000">ChatTitleComponent</text>
</g>
<!-- ChatTitleComponent&#45;&gt;ChatModule -->
<g id="edge4" class="edge">
<title>ChatTitleComponent&#45;&gt;ChatModule</title>
<path fill="none" stroke="#000000" d="M287.0703,-122.0225C287.0703,-139.3734 287.0703,-163 287.0703,-163 287.0703,-163 349.8321,-163 349.8321,-163"/>
<polygon fill="#000000" stroke="#000000" points="349.8321,-166.5001 359.8321,-163 349.832,-159.5001 349.8321,-166.5001"/>
</g>
<!-- ChatTopicComponent -->
<g id="node5" class="node">
<title>ChatTopicComponent</title>
<polygon fill="#ffffb3" stroke="#000000" points="164.4327,-122 23.5673,-122 23.5673,-86 164.4327,-86 164.4327,-122"/>
<text text-anchor="middle" x="94" y="-99.8" font-family="Times,serif" font-size="14.00" fill="#000000">ChatTopicComponent</text>
</g>
<!-- ChatTopicComponent&#45;&gt;ChatModule -->
<g id="edge5" class="edge">
<title>ChatTopicComponent&#45;&gt;ChatModule</title>
<path fill="none" stroke="#000000" d="M94,-122.2843C94,-143.3211 94,-175 94,-175 94,-175 349.7095,-175 349.7095,-175"/>
<polygon fill="#000000" stroke="#000000" points="349.7095,-178.5001 359.7095,-175 349.7095,-171.5001 349.7095,-178.5001"/>
</g>
<!-- ChatComponent  -->
<g id="node7" class="node">
<title>ChatComponent </title>
<polygon fill="#fb8072" stroke="#000000" points="531.7745,-252 420.2255,-252 420.2255,-216 531.7745,-216 531.7745,-252"/>
<text text-anchor="middle" x="476" y="-229.8" font-family="Times,serif" font-size="14.00" fill="#000000">ChatComponent </text>
</g>
<!-- ChatModule&#45;&gt;ChatComponent  -->
<g id="edge6" class="edge">
<title>ChatModule&#45;&gt;ChatComponent </title>
<path fill="none" stroke="#000000" stroke-dasharray="5,2" d="M433.1794,-187.1061C433.1794,-187.1061 433.1794,-205.991 433.1794,-205.991"/>
<polygon fill="#000000" stroke="#000000" points="429.6794,-205.9909 433.1794,-215.991 436.6794,-205.991 429.6794,-205.9909"/>
</g>
<!-- ChatTopicComponent  -->
<g id="node8" class="node">
<title>ChatTopicComponent </title>
<polygon fill="#fb8072" stroke="#000000" points="401.932,-252 258.068,-252 258.068,-216 401.932,-216 401.932,-252"/>
<text text-anchor="middle" x="330" y="-229.8" font-family="Times,serif" font-size="14.00" fill="#000000">ChatTopicComponent </text>
</g>
<!-- ChatModule&#45;&gt;ChatTopicComponent  -->
<g id="edge7" class="edge">
<title>ChatModule&#45;&gt;ChatTopicComponent </title>
<path fill="none" stroke="#000000" stroke-dasharray="5,2" d="M380.9851,-187.1061C380.9851,-187.1061 380.9851,-205.991 380.9851,-205.991"/>
<polygon fill="#000000" stroke="#000000" points="377.4852,-205.9909 380.9851,-215.991 384.4852,-205.991 377.4852,-205.9909"/>
</g>
</g>
</svg>
