<?xml version="1.0" encoding="UTF-8" standalone="no"?>
<!DOCTYPE svg PUBLIC "-//W3C//DTD SVG 1.1//EN"
 "http://www.w3.org/Graphics/SVG/1.1/DTD/svg11.dtd">
<!-- Generated by graphviz version 2.40.1 (20161225.0304)
 -->
<!-- Title: dependencies Pages: 1 -->
<svg width="504pt" height="284pt"
 viewBox="0.00 0.00 504.00 284.00" xmlns="http://www.w3.org/2000/svg" xmlns:xlink="http://www.w3.org/1999/xlink">
<g id="graph0" class="graph" transform="scale(1 1) rotate(0) translate(4 280)">
<title>dependencies</title>
<polygon fill="#ffffff" stroke="transparent" points="-4,4 -4,-280 500,-280 500,4 -4,4"/>
<text text-anchor="start" x="227.0091" y="-42.4" font-family="sans-serif" font-weight="bold" font-size="14.00" fill="#000000">Legend</text>
<polygon fill="#ffffb3" stroke="transparent" points="14,-10 14,-30 34,-30 34,-10 14,-10"/>
<text text-anchor="start" x="37.629" y="-15.4" font-family="sans-serif" font-size="14.00" fill="#000000"> &#160;Declarations</text>
<polygon fill="#8dd3c7" stroke="transparent" points="127,-10 127,-30 147,-30 147,-10 127,-10"/>
<text text-anchor="start" x="150.7251" y="-15.4" font-family="sans-serif" font-size="14.00" fill="#000000"> &#160;Module</text>
<polygon fill="#80b1d3" stroke="transparent" points="213,-10 213,-30 233,-30 233,-10 213,-10"/>
<text text-anchor="start" x="236.7812" y="-15.4" font-family="sans-serif" font-size="14.00" fill="#000000"> &#160;Bootstrap</text>
<polygon fill="#fdb462" stroke="transparent" points="310,-10 310,-30 330,-30 330,-10 310,-10"/>
<text text-anchor="start" x="333.6732" y="-15.4" font-family="sans-serif" font-size="14.00" fill="#000000"> &#160;Providers</text>
<polygon fill="#fb8072" stroke="transparent" points="406,-10 406,-30 426,-30 426,-10 406,-10"/>
<text text-anchor="start" x="429.7258" y="-15.4" font-family="sans-serif" font-size="14.00" fill="#000000"> &#160;Exports</text>
<g id="clust1" class="cluster">
<title>cluster_UserModule</title>
<polygon fill="none" stroke="#000000" stroke-dasharray="1,5" points="12.5,-70 12.5,-268 483.5,-268 483.5,-70 12.5,-70"/>
</g>
<g id="clust2" class="cluster">
<title>cluster_UserModule_declarations</title>
<polygon fill="none" stroke="#000000" points="142.5,-78 142.5,-130 475.5,-130 475.5,-78 142.5,-78"/>
</g>
<g id="clust5" class="cluster">
<title>cluster_UserModule_imports</title>
<polygon fill="none" stroke="#000000" points="20.5,-78 20.5,-130 134.5,-130 134.5,-78 20.5,-78"/>
</g>
<g id="clust6" class="cluster">
<title>cluster_UserModule_exports</title>
<polygon fill="none" stroke="#000000" points="78.5,-208 78.5,-260 418.5,-260 418.5,-208 78.5,-208"/>
</g>
<!-- UserConnexionComponent -->
<g id="node1" class="node">
<title>UserConnexionComponent</title>
<polygon fill="#ffffb3" stroke="#000000" points="467.2007,-122 297.7993,-122 297.7993,-86 467.2007,-86 467.2007,-122"/>
<text text-anchor="middle" x="382.5" y="-99.8" font-family="Times,serif" font-size="14.00" fill="#000000">UserConnexionComponent</text>
</g>
<!-- UserModule -->
<g id="node3" class="node">
<title>UserModule</title>
<polygon fill="#8dd3c7" stroke="#000000" points="258.4762,-187 255.4762,-191 234.4762,-191 231.4762,-187 172.5238,-187 172.5238,-151 258.4762,-151 258.4762,-187"/>
<text text-anchor="middle" x="215.5" y="-164.8" font-family="Times,serif" font-size="14.00" fill="#000000">UserModule</text>
</g>
<!-- UserConnexionComponent&#45;&gt;UserModule -->
<g id="edge1" class="edge">
<title>UserConnexionComponent&#45;&gt;UserModule</title>
<path fill="none" stroke="#000000" d="M354.375,-122.1061C354.375,-141.3391 354.375,-169 354.375,-169 354.375,-169 268.6797,-169 268.6797,-169"/>
<polygon fill="#000000" stroke="#000000" points="268.6797,-165.5001 258.6797,-169 268.6796,-172.5001 268.6797,-165.5001"/>
</g>
<!-- UserListComponent -->
<g id="node2" class="node">
<title>UserListComponent</title>
<polygon fill="#ffffb3" stroke="#000000" points="280.038,-122 150.962,-122 150.962,-86 280.038,-86 280.038,-122"/>
<text text-anchor="middle" x="215.5" y="-99.8" font-family="Times,serif" font-size="14.00" fill="#000000">UserListComponent</text>
</g>
<!-- UserListComponent&#45;&gt;UserModule -->
<g id="edge2" class="edge">
<title>UserListComponent&#45;&gt;UserModule</title>
<path fill="none" stroke="#000000" d="M215.5,-122.1061C215.5,-122.1061 215.5,-140.991 215.5,-140.991"/>
<polygon fill="#000000" stroke="#000000" points="212.0001,-140.9909 215.5,-150.991 219.0001,-140.991 212.0001,-140.9909"/>
</g>
<!-- UserConnexionComponent  -->
<g id="node5" class="node">
<title>UserConnexionComponent </title>
<polygon fill="#fb8072" stroke="#000000" points="410.7009,-252 238.2991,-252 238.2991,-216 410.7009,-216 410.7009,-252"/>
<text text-anchor="middle" x="324.5" y="-229.8" font-family="Times,serif" font-size="14.00" fill="#000000">UserConnexionComponent </text>
</g>
<!-- UserModule&#45;&gt;UserConnexionComponent  -->
<g id="edge4" class="edge">
<title>UserModule&#45;&gt;UserConnexionComponent </title>
<path fill="none" stroke="#000000" stroke-dasharray="5,2" d="M248.3189,-187.1061C248.3189,-187.1061 248.3189,-205.991 248.3189,-205.991"/>
<polygon fill="#000000" stroke="#000000" points="244.819,-205.9909 248.3189,-215.991 251.819,-205.991 244.819,-205.9909"/>
</g>
<!-- UserListComponent  -->
<g id="node6" class="node">
<title>UserListComponent </title>
<polygon fill="#fb8072" stroke="#000000" points="220.0372,-252 86.9628,-252 86.9628,-216 220.0372,-216 220.0372,-252"/>
<text text-anchor="middle" x="153.5" y="-229.8" font-family="Times,serif" font-size="14.00" fill="#000000">UserListComponent </text>
</g>
<!-- UserModule&#45;&gt;UserListComponent  -->
<g id="edge5" class="edge">
<title>UserModule&#45;&gt;UserListComponent </title>
<path fill="none" stroke="#000000" stroke-dasharray="5,2" d="M196.2652,-187.1061C196.2652,-187.1061 196.2652,-205.991 196.2652,-205.991"/>
<polygon fill="#000000" stroke="#000000" points="192.7653,-205.9909 196.2652,-215.991 199.7653,-205.991 192.7653,-205.9909"/>
</g>
<!-- SharedModule -->
<g id="node4" class="node">
<title>SharedModule</title>
<polygon fill="#8dd3c7" stroke="#000000" points="126.9231,-122 123.9231,-126 102.9231,-126 99.9231,-122 28.0769,-122 28.0769,-86 126.9231,-86 126.9231,-122"/>
<text text-anchor="middle" x="77.5" y="-99.8" font-family="Times,serif" font-size="14.00" fill="#000000">SharedModule</text>
</g>
<!-- SharedModule&#45;&gt;UserModule -->
<g id="edge3" class="edge">
<title>SharedModule&#45;&gt;UserModule</title>
<path fill="none" stroke="#000000" d="M106.8463,-122.1061C106.8463,-141.3391 106.8463,-169 106.8463,-169 106.8463,-169 162.245,-169 162.245,-169"/>
<polygon fill="#000000" stroke="#000000" points="162.245,-172.5001 172.245,-169 162.2449,-165.5001 162.245,-172.5001"/>
</g>
</g>
</svg>
