<?xml version="1.0" encoding="UTF-8" standalone="no"?>
<!DOCTYPE svg PUBLIC "-//W3C//DTD SVG 1.1//EN"
 "http://www.w3.org/Graphics/SVG/1.1/DTD/svg11.dtd">
<!-- Generated by graphviz version 2.40.1 (20161225.0304)
 -->
<!-- Title: dependencies Pages: 1 -->
<svg width="934pt" height="284pt"
 viewBox="0.00 0.00 934.00 284.00" xmlns="http://www.w3.org/2000/svg" xmlns:xlink="http://www.w3.org/1999/xlink">
<g id="graph0" class="graph" transform="scale(1 1) rotate(0) translate(4 280)">
<title>dependencies</title>
<polygon fill="#ffffff" stroke="transparent" points="-4,4 -4,-280 930,-280 930,4 -4,4"/>
<text text-anchor="start" x="442.0091" y="-42.4" font-family="sans-serif" font-weight="bold" font-size="14.00" fill="#000000">Legend</text>
<polygon fill="#ffffb3" stroke="transparent" points="229,-10 229,-30 249,-30 249,-10 229,-10"/>
<text text-anchor="start" x="252.629" y="-15.4" font-family="sans-serif" font-size="14.00" fill="#000000"> &#160;Declarations</text>
<polygon fill="#8dd3c7" stroke="transparent" points="342,-10 342,-30 362,-30 362,-10 342,-10"/>
<text text-anchor="start" x="365.7251" y="-15.4" font-family="sans-serif" font-size="14.00" fill="#000000"> &#160;Module</text>
<polygon fill="#80b1d3" stroke="transparent" points="428,-10 428,-30 448,-30 448,-10 428,-10"/>
<text text-anchor="start" x="451.7812" y="-15.4" font-family="sans-serif" font-size="14.00" fill="#000000"> &#160;Bootstrap</text>
<polygon fill="#fdb462" stroke="transparent" points="525,-10 525,-30 545,-30 545,-10 525,-10"/>
<text text-anchor="start" x="548.6732" y="-15.4" font-family="sans-serif" font-size="14.00" fill="#000000"> &#160;Providers</text>
<polygon fill="#fb8072" stroke="transparent" points="621,-10 621,-30 641,-30 641,-10 621,-10"/>
<text text-anchor="start" x="644.7258" y="-15.4" font-family="sans-serif" font-size="14.00" fill="#000000"> &#160;Exports</text>
<g id="clust1" class="cluster">
<title>cluster_ChatModule</title>
<polygon fill="none" stroke="#000000" stroke-dasharray="1,5" points="8,-70 8,-268 918,-268 918,-70 8,-70"/>
</g>
<g id="clust2" class="cluster">
<title>cluster_ChatModule_declarations</title>
<polygon fill="none" stroke="#000000" points="138,-78 138,-130 910,-130 910,-78 138,-78"/>
</g>
<g id="clust8" class="cluster">
<title>cluster_ChatModule_imports</title>
<polygon fill="none" stroke="#000000" points="16,-78 16,-130 130,-130 130,-78 16,-78"/>
</g>
<g id="clust9" class="cluster">
<title>cluster_ChatModule_exports</title>
<polygon fill="none" stroke="#000000" points="295,-208 295,-260 585,-260 585,-208 295,-208"/>
</g>
<!-- ChatComponent -->
<g id="node1" class="node">
<title>ChatComponent</title>
<polygon fill="#ffffb3" stroke="#000000" points="901.7744,-122 794.2256,-122 794.2256,-86 901.7744,-86 901.7744,-122"/>
<text text-anchor="middle" x="848" y="-99.8" font-family="Times,serif" font-size="14.00" fill="#000000">ChatComponent</text>
</g>
<!-- ChatModule -->
<g id="node6" class="node">
<title>ChatModule</title>
<polygon fill="#8dd3c7" stroke="#000000" points="490.9916,-187 487.9916,-191 466.9916,-191 463.9916,-187 405.0084,-187 405.0084,-151 490.9916,-151 490.9916,-187"/>
<text text-anchor="middle" x="448" y="-164.8" font-family="Times,serif" font-size="14.00" fill="#000000">ChatModule</text>
</g>
<!-- ChatComponent&#45;&gt;ChatModule -->
<g id="edge1" class="edge">
<title>ChatComponent&#45;&gt;ChatModule</title>
<path fill="none" stroke="#000000" d="M848,-122.2843C848,-143.3211 848,-175 848,-175 848,-175 501.1871,-175 501.1871,-175"/>
<polygon fill="#000000" stroke="#000000" points="501.1871,-171.5001 491.1871,-175 501.187,-178.5001 501.1871,-171.5001"/>
</g>
<!-- ChatDicussionComponent -->
<g id="node2" class="node">
<title>ChatDicussionComponent</title>
<polygon fill="#ffffb3" stroke="#000000" points="775.766,-122 612.234,-122 612.234,-86 775.766,-86 775.766,-122"/>
<text text-anchor="middle" x="694" y="-99.8" font-family="Times,serif" font-size="14.00" fill="#000000">ChatDicussionComponent</text>
</g>
<!-- ChatDicussionComponent&#45;&gt;ChatModule -->
<g id="edge2" class="edge">
<title>ChatDicussionComponent&#45;&gt;ChatModule</title>
<path fill="none" stroke="#000000" d="M694,-122.0225C694,-139.3734 694,-163 694,-163 694,-163 501.1314,-163 501.1314,-163"/>
<polygon fill="#000000" stroke="#000000" points="501.1315,-159.5001 491.1314,-163 501.1314,-166.5001 501.1315,-159.5001"/>
</g>
<!-- ChatInputComponent -->
<g id="node3" class="node">
<title>ChatInputComponent</title>
<polygon fill="#ffffb3" stroke="#000000" points="593.8258,-122 456.1742,-122 456.1742,-86 593.8258,-86 593.8258,-122"/>
<text text-anchor="middle" x="525" y="-99.8" font-family="Times,serif" font-size="14.00" fill="#000000">ChatInputComponent</text>
</g>
<!-- ChatInputComponent&#45;&gt;ChatModule -->
<g id="edge3" class="edge">
<title>ChatInputComponent&#45;&gt;ChatModule</title>
<path fill="none" stroke="#000000" d="M473.6666,-122.1061C473.6666,-122.1061 473.6666,-140.991 473.6666,-140.991"/>
<polygon fill="#000000" stroke="#000000" points="470.1666,-140.9909 473.6666,-150.991 477.1666,-140.991 470.1666,-140.9909"/>
</g>
<!-- ChatTitleComponent -->
<g id="node4" class="node">
<title>ChatTitleComponent</title>
<polygon fill="#ffffb3" stroke="#000000" points="438.2134,-122 303.7866,-122 303.7866,-86 438.2134,-86 438.2134,-122"/>
<text text-anchor="middle" x="371" y="-99.8" font-family="Times,serif" font-size="14.00" fill="#000000">ChatTitleComponent</text>
</g>
<!-- ChatTitleComponent&#45;&gt;ChatModule -->
<g id="edge4" class="edge">
<title>ChatTitleComponent&#45;&gt;ChatModule</title>
<path fill="none" stroke="#000000" d="M421.5554,-122.1061C421.5554,-122.1061 421.5554,-140.991 421.5554,-140.991"/>
<polygon fill="#000000" stroke="#000000" points="418.0555,-140.9909 421.5554,-150.991 425.0555,-140.991 418.0555,-140.9909"/>
</g>
<!-- ChatTopicComponent -->
<g id="node5" class="node">
<title>ChatTopicComponent</title>
<polygon fill="#ffffb3" stroke="#000000" points="286.4327,-122 145.5673,-122 145.5673,-86 286.4327,-86 286.4327,-122"/>
<text text-anchor="middle" x="216" y="-99.8" font-family="Times,serif" font-size="14.00" fill="#000000">ChatTopicComponent</text>
</g>
<!-- ChatTopicComponent&#45;&gt;ChatModule -->
<g id="edge5" class="edge">
<title>ChatTopicComponent&#45;&gt;ChatModule</title>
<path fill="none" stroke="#000000" d="M216,-122.0225C216,-139.3734 216,-163 216,-163 216,-163 394.9063,-163 394.9063,-163"/>
<polygon fill="#000000" stroke="#000000" points="394.9063,-166.5001 404.9063,-163 394.9063,-159.5001 394.9063,-166.5001"/>
</g>
<!-- ChatComponent  -->
<g id="node8" class="node">
<title>ChatComponent </title>
<polygon fill="#fb8072" stroke="#000000" points="576.7745,-252 465.2255,-252 465.2255,-216 576.7745,-216 576.7745,-252"/>
<text text-anchor="middle" x="521" y="-229.8" font-family="Times,serif" font-size="14.00" fill="#000000">ChatComponent </text>
</g>
<!-- ChatModule&#45;&gt;ChatComponent  -->
<g id="edge7" class="edge">
<title>ChatModule&#45;&gt;ChatComponent </title>
<path fill="none" stroke="#000000" stroke-dasharray="5,2" d="M478.1794,-187.1061C478.1794,-187.1061 478.1794,-205.991 478.1794,-205.991"/>
<polygon fill="#000000" stroke="#000000" points="474.6794,-205.9909 478.1794,-215.991 481.6794,-205.991 474.6794,-205.9909"/>
</g>
<!-- ChatTopicComponent  -->
<g id="node9" class="node">
<title>ChatTopicComponent </title>
<polygon fill="#fb8072" stroke="#000000" points="446.932,-252 303.068,-252 303.068,-216 446.932,-216 446.932,-252"/>
<text text-anchor="middle" x="375" y="-229.8" font-family="Times,serif" font-size="14.00" fill="#000000">ChatTopicComponent </text>
</g>
<!-- ChatModule&#45;&gt;ChatTopicComponent  -->
<g id="edge8" class="edge">
<title>ChatModule&#45;&gt;ChatTopicComponent </title>
<path fill="none" stroke="#000000" stroke-dasharray="5,2" d="M425.9851,-187.1061C425.9851,-187.1061 425.9851,-205.991 425.9851,-205.991"/>
<polygon fill="#000000" stroke="#000000" points="422.4852,-205.9909 425.9851,-215.991 429.4852,-205.991 422.4852,-205.9909"/>
</g>
<!-- SharedModule -->
<g id="node7" class="node">
<title>SharedModule</title>
<polygon fill="#8dd3c7" stroke="#000000" points="122.4231,-122 119.4231,-126 98.4231,-126 95.4231,-122 23.5769,-122 23.5769,-86 122.4231,-86 122.4231,-122"/>
<text text-anchor="middle" x="73" y="-99.8" font-family="Times,serif" font-size="14.00" fill="#000000">SharedModule</text>
</g>
<!-- SharedModule&#45;&gt;ChatModule -->
<g id="edge6" class="edge">
<title>SharedModule&#45;&gt;ChatModule</title>
<path fill="none" stroke="#000000" d="M73,-122.2843C73,-143.3211 73,-175 73,-175 73,-175 394.9827,-175 394.9827,-175"/>
<polygon fill="#000000" stroke="#000000" points="394.9828,-178.5001 404.9827,-175 394.9827,-171.5001 394.9828,-178.5001"/>
</g>
</g>
</svg>
