<?xml version="1.0" encoding="UTF-8" standalone="no"?>
<!DOCTYPE svg PUBLIC "-//W3C//DTD SVG 1.1//EN"
 "http://www.w3.org/Graphics/SVG/1.1/DTD/svg11.dtd">
<!-- Generated by graphviz version 2.40.1 (20161225.0304)
 -->
<!-- Title: dependencies Pages: 1 -->
<svg width="2622pt" height="436pt"
 viewBox="0.00 0.00 2622.00 436.00" xmlns="http://www.w3.org/2000/svg" xmlns:xlink="http://www.w3.org/1999/xlink">
<g id="graph0" class="graph" transform="scale(1 1) rotate(0) translate(4 432)">
<title>dependencies</title>
<polygon fill="#ffffff" stroke="transparent" points="-4,4 -4,-432 2618,-432 2618,4 -4,4"/>
<text text-anchor="start" x="1286.0091" y="-42.4" font-family="sans-serif" font-weight="bold" font-size="14.00" fill="#000000">Legend</text>
<polygon fill="#ffffb3" stroke="transparent" points="1073,-10 1073,-30 1093,-30 1093,-10 1073,-10"/>
<text text-anchor="start" x="1096.629" y="-15.4" font-family="sans-serif" font-size="14.00" fill="#000000"> &#160;Declarations</text>
<polygon fill="#8dd3c7" stroke="transparent" points="1186,-10 1186,-30 1206,-30 1206,-10 1186,-10"/>
<text text-anchor="start" x="1209.7251" y="-15.4" font-family="sans-serif" font-size="14.00" fill="#000000"> &#160;Module</text>
<polygon fill="#80b1d3" stroke="transparent" points="1272,-10 1272,-30 1292,-30 1292,-10 1272,-10"/>
<text text-anchor="start" x="1295.7812" y="-15.4" font-family="sans-serif" font-size="14.00" fill="#000000"> &#160;Bootstrap</text>
<polygon fill="#fdb462" stroke="transparent" points="1369,-10 1369,-30 1389,-30 1389,-10 1369,-10"/>
<text text-anchor="start" x="1392.6732" y="-15.4" font-family="sans-serif" font-size="14.00" fill="#000000"> &#160;Providers</text>
<polygon fill="#fb8072" stroke="transparent" points="1465,-10 1465,-30 1485,-30 1485,-10 1465,-10"/>
<text text-anchor="start" x="1488.7258" y="-15.4" font-family="sans-serif" font-size="14.00" fill="#000000"> &#160;Exports</text>
<g id="clust1" class="cluster">
<title>cluster_AppModule</title>
<polygon fill="none" stroke="#000000" stroke-dasharray="1,5" points="1117,-222 1117,-420 1523,-420 1523,-222 1117,-222"/>
</g>
<g id="clust2" class="cluster">
<title>cluster_AppModule_declarations</title>
<polygon fill="none" stroke="#000000" points="1393,-230 1393,-282 1515,-282 1515,-230 1393,-230"/>
</g>
<g id="clust4" class="cluster">
<title>cluster_AppModule_imports</title>
<polygon fill="none" stroke="#000000" points="1125,-230 1125,-282 1385,-282 1385,-230 1125,-230"/>
</g>
<g id="clust6" class="cluster">
<title>cluster_AppModule_bootstrap</title>
<polygon fill="none" stroke="#000000" points="1251,-360 1251,-412 1375,-412 1375,-360 1251,-360"/>
</g>
<g id="clust14" class="cluster">
<title>cluster_ChatModule</title>
<polygon fill="none" stroke="#000000" stroke-dasharray="1,5" points="1818,-70 1818,-290 2606,-290 2606,-70 1818,-70"/>
</g>
<g id="clust15" class="cluster">
<title>cluster_ChatModule_declarations</title>
<polygon fill="none" stroke="#000000" points="1826,-78 1826,-130 2598,-130 2598,-78 1826,-78"/>
</g>
<g id="clust22" class="cluster">
<title>cluster_ChatModule_exports</title>
<polygon fill="none" stroke="#000000" points="1970,-230 1970,-282 2260,-282 2260,-230 1970,-230"/>
</g>
<g id="clust25" class="cluster">
<title>cluster_ScreenModule</title>
<polygon fill="none" stroke="#000000" stroke-dasharray="1,5" points="451,-146 451,-214 1810,-214 1810,-146 451,-146"/>
</g>
<g id="clust26" class="cluster">
<title>cluster_ScreenModule_declarations</title>
<polygon fill="none" stroke="#000000" points="783,-154 783,-206 1283,-206 1283,-154 783,-154"/>
</g>
<g id="clust30" class="cluster">
<title>cluster_ScreenModule_imports</title>
<polygon fill="none" stroke="#000000" points="459,-154 459,-206 775,-206 775,-154 459,-154"/>
</g>
<g id="clust31" class="cluster">
<title>cluster_ScreenModule_exports</title>
<polygon fill="none" stroke="#000000" points="1291,-154 1291,-206 1802,-206 1802,-154 1291,-154"/>
</g>
<g id="clust40" class="cluster">
<title>cluster_ShopModule</title>
<polygon fill="none" stroke="#000000" stroke-dasharray="1,5" points="165,-70 165,-138 1257,-138 1257,-70 165,-70"/>
</g>
<g id="clust41" class="cluster">
<title>cluster_ShopModule_declarations</title>
<polygon fill="none" stroke="#000000" points="481,-78 481,-130 1249,-130 1249,-78 481,-78"/>
</g>
<g id="clust48" class="cluster">
<title>cluster_ShopModule_exports</title>
<polygon fill="none" stroke="#000000" points="173,-78 173,-130 473,-130 473,-78 173,-78"/>
</g>
<g id="clust51" class="cluster">
<title>cluster_SportModule</title>
<polygon fill="none" stroke="#000000" stroke-dasharray="1,5" points="8,-222 8,-290 372,-290 372,-222 8,-222"/>
</g>
<g id="clust52" class="cluster">
<title>cluster_SportModule_declarations</title>
<polygon fill="none" stroke="#000000" points="196,-230 196,-282 364,-282 364,-230 196,-230"/>
</g>
<g id="clust55" class="cluster">
<title>cluster_SportModule_exports</title>
<polygon fill="none" stroke="#000000" points="16,-230 16,-282 188,-282 188,-230 16,-230"/>
</g>
<g id="clust58" class="cluster">
<title>cluster_UserModule</title>
<polygon fill="none" stroke="#000000" stroke-dasharray="1,5" points="380,-222 380,-290 1077,-290 1077,-222 380,-222"/>
</g>
<g id="clust59" class="cluster">
<title>cluster_UserModule_declarations</title>
<polygon fill="none" stroke="#000000" points="736,-230 736,-282 1069,-282 1069,-230 736,-230"/>
</g>
<g id="clust63" class="cluster">
<title>cluster_UserModule_exports</title>
<polygon fill="none" stroke="#000000" points="388,-230 388,-282 728,-282 728,-230 388,-230"/>
</g>
<!-- AppComponent -->
<g id="node1" class="node">
<title>AppComponent</title>
<polygon fill="#ffffb3" stroke="#000000" points="1506.9399,-274 1401.0601,-274 1401.0601,-238 1506.9399,-238 1506.9399,-274"/>
<text text-anchor="middle" x="1454" y="-251.8" font-family="Times,serif" font-size="14.00" fill="#000000">AppComponent</text>
</g>
<!-- AppModule -->
<g id="node2" class="node">
<title>AppModule</title>
<polygon fill="#8dd3c7" stroke="#000000" points="1354.6571,-339 1351.6571,-343 1330.6571,-343 1327.6571,-339 1271.3429,-339 1271.3429,-303 1354.6571,-303 1354.6571,-339"/>
<text text-anchor="middle" x="1313" y="-316.8" font-family="Times,serif" font-size="14.00" fill="#000000">AppModule</text>
</g>
<!-- AppComponent&#45;&gt;AppModule -->
<g id="edge1" class="edge">
<title>AppComponent&#45;&gt;AppModule</title>
<path fill="none" stroke="#000000" d="M1454,-274.1061C1454,-293.3391 1454,-321 1454,-321 1454,-321 1364.9229,-321 1364.9229,-321"/>
<polygon fill="#000000" stroke="#000000" points="1364.9229,-317.5001 1354.9229,-321 1364.9229,-324.5001 1364.9229,-317.5001"/>
</g>
<!-- AppComponent  -->
<g id="node5" class="node">
<title>AppComponent </title>
<polygon fill="#80b1d3" stroke="#000000" points="1367.439,-404 1258.561,-404 1258.561,-368 1367.439,-368 1367.439,-404"/>
<text text-anchor="middle" x="1313" y="-381.8" font-family="Times,serif" font-size="14.00" fill="#000000">AppComponent </text>
</g>
<!-- AppModule&#45;&gt;AppComponent  -->
<g id="edge4" class="edge">
<title>AppModule&#45;&gt;AppComponent </title>
<path fill="none" stroke="#000000" stroke-dasharray="1,5" d="M1313,-339.1061C1313,-339.1061 1313,-357.991 1313,-357.991"/>
<polygon fill="#000000" stroke="#000000" points="1309.5001,-357.9909 1313,-367.991 1316.5001,-357.991 1309.5001,-357.9909"/>
</g>
<!-- AppRoutingModule -->
<g id="node3" class="node">
<title>AppRoutingModule</title>
<polygon fill="#8dd3c7" stroke="#000000" points="1377.2744,-274 1374.2744,-278 1353.2744,-278 1350.2744,-274 1248.7256,-274 1248.7256,-238 1377.2744,-238 1377.2744,-274"/>
<text text-anchor="middle" x="1313" y="-251.8" font-family="Times,serif" font-size="14.00" fill="#000000">AppRoutingModule</text>
</g>
<!-- AppRoutingModule&#45;&gt;AppModule -->
<g id="edge2" class="edge">
<title>AppRoutingModule&#45;&gt;AppModule</title>
<path fill="none" stroke="#000000" d="M1313,-274.1061C1313,-274.1061 1313,-292.991 1313,-292.991"/>
<polygon fill="#000000" stroke="#000000" points="1309.5001,-292.9909 1313,-302.991 1316.5001,-292.991 1309.5001,-292.9909"/>
</g>
<!-- ScreenModule -->
<g id="node4" class="node">
<title>ScreenModule</title>
<polygon fill="#8dd3c7" stroke="#000000" points="1230.6375,-274 1227.6375,-278 1206.6375,-278 1203.6375,-274 1133.3625,-274 1133.3625,-238 1230.6375,-238 1230.6375,-274"/>
<text text-anchor="middle" x="1182" y="-251.8" font-family="Times,serif" font-size="14.00" fill="#000000">ScreenModule</text>
</g>
<!-- ScreenModule&#45;&gt;AppModule -->
<g id="edge3" class="edge">
<title>ScreenModule&#45;&gt;AppModule</title>
<path fill="none" stroke="#000000" d="M1182,-274.1061C1182,-293.3391 1182,-321 1182,-321 1182,-321 1261.1906,-321 1261.1906,-321"/>
<polygon fill="#000000" stroke="#000000" points="1261.1906,-324.5001 1271.1906,-321 1261.1906,-317.5001 1261.1906,-324.5001"/>
</g>
<!-- ScreenChatComponent  -->
<g id="node20" class="node">
<title>ScreenChatComponent </title>
<polygon fill="#fb8072" stroke="#000000" points="1448.8616,-198 1299.1384,-198 1299.1384,-162 1448.8616,-162 1448.8616,-198"/>
<text text-anchor="middle" x="1374" y="-175.8" font-family="Times,serif" font-size="14.00" fill="#000000">ScreenChatComponent </text>
</g>
<!-- ScreenModule&#45;&gt;ScreenChatComponent  -->
<g id="edge19" class="edge">
<title>ScreenModule&#45;&gt;ScreenChatComponent </title>
<path fill="none" stroke="#000000" stroke-dasharray="5,2" d="M1201.5274,-237.8903C1201.5274,-228.103 1201.5274,-218 1201.5274,-218 1201.5274,-218 1338.3533,-218 1338.3533,-218 1338.3533,-218 1338.3533,-208.1097 1338.3533,-208.1097"/>
<polygon fill="#000000" stroke="#000000" points="1341.8533,-208.1096 1338.3533,-198.1097 1334.8533,-208.1097 1341.8533,-208.1096"/>
</g>
<!-- ScreenHomeComponent  -->
<g id="node21" class="node">
<title>ScreenHomeComponent </title>
<polygon fill="#fb8072" stroke="#000000" points="1793.6313,-198 1636.3687,-198 1636.3687,-162 1793.6313,-162 1793.6313,-198"/>
<text text-anchor="middle" x="1715" y="-175.8" font-family="Times,serif" font-size="14.00" fill="#000000">ScreenHomeComponent </text>
</g>
<!-- ScreenModule&#45;&gt;ScreenHomeComponent  -->
<g id="edge20" class="edge">
<title>ScreenModule&#45;&gt;ScreenHomeComponent </title>
<path fill="none" stroke="#000000" stroke-dasharray="5,2" d="M1221.0547,-237.9672C1221.0547,-231.1474 1221.0547,-225 1221.0547,-225 1221.0547,-225 1715,-225 1715,-225 1715,-225 1715,-208.0439 1715,-208.0439"/>
<polygon fill="#000000" stroke="#000000" points="1718.5001,-208.0439 1715,-198.0439 1711.5001,-208.044 1718.5001,-208.0439"/>
</g>
<!-- ScreenShopComponent  -->
<g id="node22" class="node">
<title>ScreenShopComponent </title>
<polygon fill="#fb8072" stroke="#000000" points="1618.7023,-198 1467.2977,-198 1467.2977,-162 1618.7023,-162 1618.7023,-198"/>
<text text-anchor="middle" x="1543" y="-175.8" font-family="Times,serif" font-size="14.00" fill="#000000">ScreenShopComponent </text>
</g>
<!-- ScreenModule&#45;&gt;ScreenShopComponent  -->
<g id="edge21" class="edge">
<title>ScreenModule&#45;&gt;ScreenShopComponent </title>
<path fill="none" stroke="#000000" stroke-dasharray="5,2" d="M1211.291,-237.8056C1211.291,-229.7218 1211.291,-222 1211.291,-222 1211.291,-222 1486.9343,-222 1486.9343,-222 1486.9343,-222 1486.9343,-208.0555 1486.9343,-208.0555"/>
<polygon fill="#000000" stroke="#000000" points="1490.4343,-208.0555 1486.9343,-198.0555 1483.4343,-208.0556 1490.4343,-208.0555"/>
</g>
<!-- ChatComponent -->
<g id="node6" class="node">
<title>ChatComponent</title>
<polygon fill="#ffffb3" stroke="#000000" points="1941.7744,-122 1834.2256,-122 1834.2256,-86 1941.7744,-86 1941.7744,-122"/>
<text text-anchor="middle" x="1888" y="-99.8" font-family="Times,serif" font-size="14.00" fill="#000000">ChatComponent</text>
</g>
<!-- ChatModule -->
<g id="node11" class="node">
<title>ChatModule</title>
<polygon fill="#8dd3c7" stroke="#000000" points="2149.9916,-198 2146.9916,-202 2125.9916,-202 2122.9916,-198 2064.0084,-198 2064.0084,-162 2149.9916,-162 2149.9916,-198"/>
<text text-anchor="middle" x="2107" y="-175.8" font-family="Times,serif" font-size="14.00" fill="#000000">ChatModule</text>
</g>
<!-- ChatComponent&#45;&gt;ChatModule -->
<g id="edge5" class="edge">
<title>ChatComponent&#45;&gt;ChatModule</title>
<path fill="none" stroke="#000000" d="M1888,-122.0109C1888,-144.4852 1888,-180 1888,-180 1888,-180 2053.9939,-180 2053.9939,-180"/>
<polygon fill="#000000" stroke="#000000" points="2053.994,-183.5001 2063.9939,-180 2053.9939,-176.5001 2053.994,-183.5001"/>
</g>
<!-- ChatDicussionComponent -->
<g id="node7" class="node">
<title>ChatDicussionComponent</title>
<polygon fill="#ffffb3" stroke="#000000" points="2589.766,-122 2426.234,-122 2426.234,-86 2589.766,-86 2589.766,-122"/>
<text text-anchor="middle" x="2508" y="-99.8" font-family="Times,serif" font-size="14.00" fill="#000000">ChatDicussionComponent</text>
</g>
<!-- ChatDicussionComponent&#45;&gt;ChatModule -->
<g id="edge6" class="edge">
<title>ChatDicussionComponent&#45;&gt;ChatModule</title>
<path fill="none" stroke="#000000" d="M2508,-122.1985C2508,-146.3563 2508,-186 2508,-186 2508,-186 2160.295,-186 2160.295,-186"/>
<polygon fill="#000000" stroke="#000000" points="2160.2951,-182.5001 2150.295,-186 2160.295,-189.5001 2160.2951,-182.5001"/>
</g>
<!-- ChatInputComponent -->
<g id="node8" class="node">
<title>ChatInputComponent</title>
<polygon fill="#ffffb3" stroke="#000000" points="2407.8258,-122 2270.1742,-122 2270.1742,-86 2407.8258,-86 2407.8258,-122"/>
<text text-anchor="middle" x="2339" y="-99.8" font-family="Times,serif" font-size="14.00" fill="#000000">ChatInputComponent</text>
</g>
<!-- ChatInputComponent&#45;&gt;ChatModule -->
<g id="edge7" class="edge">
<title>ChatInputComponent&#45;&gt;ChatModule</title>
<path fill="none" stroke="#000000" d="M2339,-122.0267C2339,-142.7672 2339,-174 2339,-174 2339,-174 2160.0937,-174 2160.0937,-174"/>
<polygon fill="#000000" stroke="#000000" points="2160.0937,-170.5001 2150.0937,-174 2160.0937,-177.5001 2160.0937,-170.5001"/>
</g>
<!-- ChatTitleComponent -->
<g id="node9" class="node">
<title>ChatTitleComponent</title>
<polygon fill="#ffffb3" stroke="#000000" points="2252.2134,-122 2117.7866,-122 2117.7866,-86 2252.2134,-86 2252.2134,-122"/>
<text text-anchor="middle" x="2185" y="-99.8" font-family="Times,serif" font-size="14.00" fill="#000000">ChatTitleComponent</text>
</g>
<!-- ChatTitleComponent&#45;&gt;ChatModule -->
<g id="edge8" class="edge">
<title>ChatTitleComponent&#45;&gt;ChatModule</title>
<path fill="none" stroke="#000000" d="M2133.9446,-122.0109C2133.9446,-122.0109 2133.9446,-151.855 2133.9446,-151.855"/>
<polygon fill="#000000" stroke="#000000" points="2130.4447,-151.8549 2133.9446,-161.855 2137.4447,-151.855 2130.4447,-151.8549"/>
</g>
<!-- ChatTopicComponent -->
<g id="node10" class="node">
<title>ChatTopicComponent</title>
<polygon fill="#ffffb3" stroke="#000000" points="2100.4327,-122 1959.5673,-122 1959.5673,-86 2100.4327,-86 2100.4327,-122"/>
<text text-anchor="middle" x="2030" y="-99.8" font-family="Times,serif" font-size="14.00" fill="#000000">ChatTopicComponent</text>
</g>
<!-- ChatTopicComponent&#45;&gt;ChatModule -->
<g id="edge9" class="edge">
<title>ChatTopicComponent&#45;&gt;ChatModule</title>
<path fill="none" stroke="#000000" d="M2082.1101,-122.0109C2082.1101,-122.0109 2082.1101,-151.855 2082.1101,-151.855"/>
<polygon fill="#000000" stroke="#000000" points="2078.6102,-151.8549 2082.1101,-161.855 2085.6102,-151.855 2078.6102,-151.8549"/>
</g>
<!-- ChatModule&#45;&gt;ScreenModule -->
<g id="edge15" class="edge">
<title>ChatModule&#45;&gt;ScreenModule</title>
<path fill="none" stroke="#000000" d="M2072.5485,-198.1467C2072.5485,-211.7395 2072.5485,-228 2072.5485,-228 2072.5485,-228 1191.7637,-228 1191.7637,-228 1191.7637,-228 1191.7637,-228.9793 1191.7637,-228.9793"/>
<polygon fill="#000000" stroke="#000000" points="1188.2638,-227.793 1191.7637,-237.793 1195.2638,-227.7931 1188.2638,-227.793"/>
</g>
<!-- ChatComponent  -->
<g id="node12" class="node">
<title>ChatComponent </title>
<polygon fill="#fb8072" stroke="#000000" points="2089.7745,-274 1978.2255,-274 1978.2255,-238 2089.7745,-238 2089.7745,-274"/>
<text text-anchor="middle" x="2034" y="-251.8" font-family="Times,serif" font-size="14.00" fill="#000000">ChatComponent </text>
</g>
<!-- ChatModule&#45;&gt;ChatComponent  -->
<g id="edge10" class="edge">
<title>ChatModule&#45;&gt;ChatComponent </title>
<path fill="none" stroke="#000000" stroke-dasharray="5,2" d="M2081.0928,-198.0109C2081.0928,-198.0109 2081.0928,-227.855 2081.0928,-227.855"/>
<polygon fill="#000000" stroke="#000000" points="2077.5929,-227.8549 2081.0928,-237.855 2084.5929,-227.855 2077.5929,-227.8549"/>
</g>
<!-- ChatTopicComponent  -->
<g id="node13" class="node">
<title>ChatTopicComponent </title>
<polygon fill="#fb8072" stroke="#000000" points="2251.932,-274 2108.068,-274 2108.068,-238 2251.932,-238 2251.932,-274"/>
<text text-anchor="middle" x="2180" y="-251.8" font-family="Times,serif" font-size="14.00" fill="#000000">ChatTopicComponent </text>
</g>
<!-- ChatModule&#45;&gt;ChatTopicComponent  -->
<g id="edge11" class="edge">
<title>ChatModule&#45;&gt;ChatTopicComponent </title>
<path fill="none" stroke="#000000" stroke-dasharray="5,2" d="M2129.0149,-198.0109C2129.0149,-198.0109 2129.0149,-227.855 2129.0149,-227.855"/>
<polygon fill="#000000" stroke="#000000" points="2125.515,-227.8549 2129.0149,-237.855 2132.515,-227.855 2125.515,-227.8549"/>
</g>
<!-- ScreenChatComponent -->
<g id="node14" class="node">
<title>ScreenChatComponent</title>
<polygon fill="#ffffb3" stroke="#000000" points="936.8613,-198 791.1387,-198 791.1387,-162 936.8613,-162 936.8613,-198"/>
<text text-anchor="middle" x="864" y="-175.8" font-family="Times,serif" font-size="14.00" fill="#000000">ScreenChatComponent</text>
</g>
<!-- ScreenChatComponent&#45;&gt;ScreenModule -->
<g id="edge12" class="edge">
<title>ScreenChatComponent&#45;&gt;ScreenModule</title>
<path fill="none" stroke="#000000" d="M921.7536,-198.1679C921.7536,-200.4478 921.7536,-202 921.7536,-202 921.7536,-202 1172.2363,-202 1172.2363,-202 1172.2363,-202 1172.2363,-227.7181 1172.2363,-227.7181"/>
<polygon fill="#000000" stroke="#000000" points="1168.7364,-227.718 1172.2363,-237.7181 1175.7364,-227.7181 1168.7364,-227.718"/>
</g>
<!-- ScreenHomeComponent -->
<g id="node15" class="node">
<title>ScreenHomeComponent</title>
<polygon fill="#ffffb3" stroke="#000000" points="1274.6316,-198 1121.3684,-198 1121.3684,-162 1274.6316,-162 1274.6316,-198"/>
<text text-anchor="middle" x="1198" y="-175.8" font-family="Times,serif" font-size="14.00" fill="#000000">ScreenHomeComponent</text>
</g>
<!-- ScreenHomeComponent&#45;&gt;ScreenModule -->
<g id="edge13" class="edge">
<title>ScreenHomeComponent&#45;&gt;ScreenModule</title>
<path fill="none" stroke="#000000" d="M1182,-198.0109C1182,-198.0109 1182,-227.855 1182,-227.855"/>
<polygon fill="#000000" stroke="#000000" points="1178.5001,-227.8549 1182,-237.855 1185.5001,-227.855 1178.5001,-227.8549"/>
</g>
<!-- ScreenShopComponent -->
<g id="node16" class="node">
<title>ScreenShopComponent</title>
<polygon fill="#ffffb3" stroke="#000000" points="1103.2021,-198 954.7979,-198 954.7979,-162 1103.2021,-162 1103.2021,-198"/>
<text text-anchor="middle" x="1029" y="-175.8" font-family="Times,serif" font-size="14.00" fill="#000000">ScreenShopComponent</text>
</g>
<!-- ScreenShopComponent&#45;&gt;ScreenModule -->
<g id="edge14" class="edge">
<title>ScreenShopComponent&#45;&gt;ScreenModule</title>
<path fill="none" stroke="#000000" d="M1081.8506,-198.0109C1081.8506,-220.4852 1081.8506,-256 1081.8506,-256 1081.8506,-256 1123.0989,-256 1123.0989,-256"/>
<polygon fill="#000000" stroke="#000000" points="1123.0989,-259.5001 1133.0989,-256 1123.0988,-252.5001 1123.0989,-259.5001"/>
</g>
<!-- ShopModule -->
<g id="node17" class="node">
<title>ShopModule</title>
<polygon fill="#8dd3c7" stroke="#000000" points="767.333,-198 764.333,-202 743.333,-202 740.333,-198 678.667,-198 678.667,-162 767.333,-162 767.333,-198"/>
<text text-anchor="middle" x="723" y="-175.8" font-family="Times,serif" font-size="14.00" fill="#000000">ShopModule</text>
</g>
<!-- ShopModule&#45;&gt;ScreenModule -->
<g id="edge16" class="edge">
<title>ShopModule&#45;&gt;ScreenModule</title>
<path fill="none" stroke="#000000" d="M759.5213,-198.1686C759.5213,-202.0459 759.5213,-205 759.5213,-205 759.5213,-205 1162.4726,-205 1162.4726,-205 1162.4726,-205 1162.4726,-227.8757 1162.4726,-227.8757"/>
<polygon fill="#000000" stroke="#000000" points="1158.9727,-227.8757 1162.4726,-237.8757 1165.9727,-227.8757 1158.9727,-227.8757"/>
</g>
<!-- ShopButtonComponent  -->
<g id="node28" class="node">
<title>ShopButtonComponent </title>
<polygon fill="#fb8072" stroke="#000000" points="464.733,-122 313.267,-122 313.267,-86 464.733,-86 464.733,-122"/>
<text text-anchor="middle" x="389" y="-99.8" font-family="Times,serif" font-size="14.00" fill="#000000">ShopButtonComponent </text>
</g>
<!-- ShopModule&#45;&gt;ShopButtonComponent  -->
<g id="edge27" class="edge">
<title>ShopModule&#45;&gt;ShopButtonComponent </title>
<path fill="none" stroke="#000000" stroke-dasharray="5,2" d="M700.9169,-161.7985C700.9169,-155.972 700.9169,-151 700.9169,-151 700.9169,-151 430.6739,-151 430.6739,-151 430.6739,-151 430.6739,-132.037 430.6739,-132.037"/>
<polygon fill="#000000" stroke="#000000" points="434.174,-132.037 430.6739,-122.037 427.174,-132.037 434.174,-132.037"/>
</g>
<!-- ShopComponent  -->
<g id="node29" class="node">
<title>ShopComponent </title>
<polygon fill="#fb8072" stroke="#000000" points="294.6157,-122 181.3843,-122 181.3843,-86 294.6157,-86 294.6157,-122"/>
<text text-anchor="middle" x="238" y="-99.8" font-family="Times,serif" font-size="14.00" fill="#000000">ShopComponent </text>
</g>
<!-- ShopModule&#45;&gt;ShopComponent  -->
<g id="edge28" class="edge">
<title>ShopModule&#45;&gt;ShopComponent </title>
<path fill="none" stroke="#000000" stroke-dasharray="5,2" d="M689.8754,-161.8777C689.8754,-159.0271 689.8754,-157 689.8754,-157 689.8754,-157 249.3806,-157 249.3806,-157 249.3806,-157 249.3806,-132.2396 249.3806,-132.2396"/>
<polygon fill="#000000" stroke="#000000" points="252.8807,-132.2396 249.3806,-122.2396 245.8807,-132.2396 252.8807,-132.2396"/>
</g>
<!-- SportModule -->
<g id="node18" class="node">
<title>SportModule</title>
<polygon fill="#8dd3c7" stroke="#000000" points="556.8837,-198 553.8837,-202 532.8837,-202 529.8837,-198 467.1163,-198 467.1163,-162 556.8837,-162 556.8837,-198"/>
<text text-anchor="middle" x="512" y="-175.8" font-family="Times,serif" font-size="14.00" fill="#000000">SportModule</text>
</g>
<!-- SportModule&#45;&gt;ScreenModule -->
<g id="edge17" class="edge">
<title>SportModule&#45;&gt;ScreenModule</title>
<path fill="none" stroke="#000000" d="M552.2958,-198.2434C552.2958,-205.4297 552.2958,-212 552.2958,-212 552.2958,-212 1142.9453,-212 1142.9453,-212 1142.9453,-212 1142.9453,-227.8495 1142.9453,-227.8495"/>
<polygon fill="#000000" stroke="#000000" points="1139.4454,-227.8494 1142.9453,-237.8495 1146.4454,-227.8495 1139.4454,-227.8494"/>
</g>
<!-- SportBannerComponent  -->
<g id="node31" class="node">
<title>SportBannerComponent </title>
<polygon fill="#fb8072" stroke="#000000" points="179.5931,-274 24.4069,-274 24.4069,-238 179.5931,-238 179.5931,-274"/>
<text text-anchor="middle" x="102" y="-251.8" font-family="Times,serif" font-size="14.00" fill="#000000">SportBannerComponent </text>
</g>
<!-- SportModule&#45;&gt;SportBannerComponent  -->
<g id="edge30" class="edge">
<title>SportModule&#45;&gt;SportBannerComponent </title>
<path fill="none" stroke="#000000" stroke-dasharray="5,2" d="M466.95,-174C360.4432,-174 102,-174 102,-174 102,-174 102,-227.8015 102,-227.8015"/>
<polygon fill="#000000" stroke="#000000" points="98.5001,-227.8015 102,-237.8015 105.5001,-227.8016 98.5001,-227.8015"/>
</g>
<!-- UserModule -->
<g id="node19" class="node">
<title>UserModule</title>
<polygon fill="#8dd3c7" stroke="#000000" points="660.9762,-198 657.9762,-202 636.9762,-202 633.9762,-198 575.0238,-198 575.0238,-162 660.9762,-162 660.9762,-198"/>
<text text-anchor="middle" x="618" y="-175.8" font-family="Times,serif" font-size="14.00" fill="#000000">UserModule</text>
</g>
<!-- UserModule&#45;&gt;ScreenModule -->
<g id="edge18" class="edge">
<title>UserModule&#45;&gt;ScreenModule</title>
<path fill="none" stroke="#000000" d="M618,-198.207C618,-203.5549 618,-208 618,-208 618,-208 1152.709,-208 1152.709,-208 1152.709,-208 1152.709,-227.8533 1152.709,-227.8533"/>
<polygon fill="#000000" stroke="#000000" points="1149.2091,-227.8532 1152.709,-237.8533 1156.2091,-227.8533 1149.2091,-227.8532"/>
</g>
<!-- UserConnexionComponent  -->
<g id="node34" class="node">
<title>UserConnexionComponent </title>
<polygon fill="#fb8072" stroke="#000000" points="720.2009,-274 547.7991,-274 547.7991,-238 720.2009,-238 720.2009,-274"/>
<text text-anchor="middle" x="634" y="-251.8" font-family="Times,serif" font-size="14.00" fill="#000000">UserConnexionComponent </text>
</g>
<!-- UserModule&#45;&gt;UserConnexionComponent  -->
<g id="edge33" class="edge">
<title>UserModule&#45;&gt;UserConnexionComponent </title>
<path fill="none" stroke="#000000" stroke-dasharray="5,2" d="M603.6706,-198.0109C603.6706,-198.0109 603.6706,-227.855 603.6706,-227.855"/>
<polygon fill="#000000" stroke="#000000" points="600.1707,-227.8549 603.6706,-237.855 607.1707,-227.855 600.1707,-227.8549"/>
</g>
<!-- UserListComponent  -->
<g id="node35" class="node">
<title>UserListComponent </title>
<polygon fill="#fb8072" stroke="#000000" points="529.5372,-274 396.4628,-274 396.4628,-238 529.5372,-238 529.5372,-274"/>
<text text-anchor="middle" x="463" y="-251.8" font-family="Times,serif" font-size="14.00" fill="#000000">UserListComponent </text>
</g>
<!-- UserModule&#45;&gt;UserListComponent  -->
<g id="edge34" class="edge">
<title>UserModule&#45;&gt;UserListComponent </title>
<path fill="none" stroke="#000000" stroke-dasharray="5,2" d="M589.3413,-198.0091C589.3413,-214.0494 589.3413,-235 589.3413,-235 589.3413,-235 498.2884,-235 498.2884,-235 498.2884,-235 498.2884,-235.292 498.2884,-235.292"/>
<polygon fill="#000000" stroke="#000000" points="494.7888,-227.9198 498.2884,-237.92 501.7888,-227.9201 494.7888,-227.9198"/>
</g>
<!-- ShopButtonComponent -->
<g id="node23" class="node">
<title>ShopButtonComponent</title>
<polygon fill="#ffffb3" stroke="#000000" points="637.233,-122 488.767,-122 488.767,-86 637.233,-86 637.233,-122"/>
<text text-anchor="middle" x="563" y="-99.8" font-family="Times,serif" font-size="14.00" fill="#000000">ShopButtonComponent</text>
</g>
<!-- ShopButtonComponent&#45;&gt;ShopModule -->
<g id="edge22" class="edge">
<title>ShopButtonComponent&#45;&gt;ShopModule</title>
<path fill="none" stroke="#000000" d="M606.0641,-122.1025C606.0641,-133.0859 606.0641,-145 606.0641,-145 606.0641,-145 711.9585,-145 711.9585,-145 711.9585,-145 711.9585,-151.68 711.9585,-151.68"/>
<polygon fill="#000000" stroke="#000000" points="708.4585,-151.6799 711.9585,-161.68 715.4585,-151.68 708.4585,-151.6799"/>
</g>
<!-- ShopComponent -->
<g id="node24" class="node">
<title>ShopComponent</title>
<polygon fill="#ffffb3" stroke="#000000" points="1241.1151,-122 1130.8849,-122 1130.8849,-86 1241.1151,-86 1241.1151,-122"/>
<text text-anchor="middle" x="1186" y="-99.8" font-family="Times,serif" font-size="14.00" fill="#000000">ShopComponent</text>
</g>
<!-- ShopComponent&#45;&gt;ShopModule -->
<g id="edge23" class="edge">
<title>ShopComponent&#45;&gt;ShopModule</title>
<path fill="none" stroke="#000000" d="M1186,-122.4218C1186,-131.2791 1186,-140 1186,-140 1186,-140 756.1247,-140 756.1247,-140 756.1247,-140 756.1247,-151.8726 756.1247,-151.8726"/>
<polygon fill="#000000" stroke="#000000" points="752.6247,-151.8725 756.1247,-161.8726 759.6247,-151.8726 752.6247,-151.8725"/>
</g>
<!-- ShopListComponent -->
<g id="node25" class="node">
<title>ShopListComponent</title>
<polygon fill="#ffffb3" stroke="#000000" points="1112.8934,-122 981.1066,-122 981.1066,-86 1112.8934,-86 1112.8934,-122"/>
<text text-anchor="middle" x="1047" y="-99.8" font-family="Times,serif" font-size="14.00" fill="#000000">ShopListComponent</text>
</g>
<!-- ShopListComponent&#45;&gt;ShopModule -->
<g id="edge24" class="edge">
<title>ShopListComponent&#45;&gt;ShopModule</title>
<path fill="none" stroke="#000000" d="M1042.0772,-122.1432C1042.0772,-128.4611 1042.0772,-134 1042.0772,-134 1042.0772,-134 745.0831,-134 745.0831,-134 745.0831,-134 745.0831,-151.8196 745.0831,-151.8196"/>
<polygon fill="#000000" stroke="#000000" points="741.5832,-151.8195 745.0831,-161.8196 748.5832,-151.8196 741.5832,-151.8195"/>
</g>
<!-- ShopProductComponent -->
<g id="node26" class="node">
<title>ShopProductComponent</title>
<polygon fill="#ffffb3" stroke="#000000" points="962.6638,-122 809.3362,-122 809.3362,-86 962.6638,-86 962.6638,-122"/>
<text text-anchor="middle" x="886" y="-99.8" font-family="Times,serif" font-size="14.00" fill="#000000">ShopProductComponent</text>
</g>
<!-- ShopProductComponent&#45;&gt;ShopModule -->
<g id="edge25" class="edge">
<title>ShopProductComponent&#45;&gt;ShopModule</title>
<path fill="none" stroke="#000000" d="M873.0495,-122.1903C873.0495,-125.5376 873.0495,-128 873.0495,-128 873.0495,-128 734.0416,-128 734.0416,-128 734.0416,-128 734.0416,-151.8129 734.0416,-151.8129"/>
<polygon fill="#000000" stroke="#000000" points="730.5416,-151.8129 734.0416,-161.8129 737.5416,-151.813 730.5416,-151.8129"/>
</g>
<!-- ShopTitleComponent -->
<g id="node27" class="node">
<title>ShopTitleComponent</title>
<polygon fill="#ffffb3" stroke="#000000" points="791.0547,-122 654.9453,-122 654.9453,-86 791.0547,-86 791.0547,-122"/>
<text text-anchor="middle" x="723" y="-99.8" font-family="Times,serif" font-size="14.00" fill="#000000">ShopTitleComponent</text>
</g>
<!-- ShopTitleComponent&#45;&gt;ShopModule -->
<g id="edge26" class="edge">
<title>ShopTitleComponent&#45;&gt;ShopModule</title>
<path fill="none" stroke="#000000" d="M723,-122.0109C723,-122.0109 723,-151.855 723,-151.855"/>
<polygon fill="#000000" stroke="#000000" points="719.5001,-151.8549 723,-161.855 726.5001,-151.855 719.5001,-151.8549"/>
</g>
<!-- SportBannerComponent -->
<g id="node30" class="node">
<title>SportBannerComponent</title>
<polygon fill="#ffffb3" stroke="#000000" points="356.0926,-274 203.9074,-274 203.9074,-238 356.0926,-238 356.0926,-274"/>
<text text-anchor="middle" x="280" y="-251.8" font-family="Times,serif" font-size="14.00" fill="#000000">SportBannerComponent</text>
</g>
<!-- SportBannerComponent&#45;&gt;SportModule -->
<g id="edge29" class="edge">
<title>SportBannerComponent&#45;&gt;SportModule</title>
<path fill="none" stroke="#000000" d="M334.59,-237.9733C334.59,-217.2328 334.59,-186 334.59,-186 334.59,-186 456.7729,-186 456.7729,-186"/>
<polygon fill="#000000" stroke="#000000" points="456.773,-189.5001 466.7729,-186 456.7729,-182.5001 456.773,-189.5001"/>
</g>
<!-- UserConnexionComponent -->
<g id="node32" class="node">
<title>UserConnexionComponent</title>
<polygon fill="#ffffb3" stroke="#000000" points="1060.7007,-274 891.2993,-274 891.2993,-238 1060.7007,-238 1060.7007,-274"/>
<text text-anchor="middle" x="976" y="-251.8" font-family="Times,serif" font-size="14.00" fill="#000000">UserConnexionComponent</text>
</g>
<!-- UserConnexionComponent&#45;&gt;UserModule -->
<g id="edge31" class="edge">
<title>UserConnexionComponent&#45;&gt;UserModule</title>
<path fill="none" stroke="#000000" d="M906.5767,-237.8975C906.5767,-226.9141 906.5767,-215 906.5767,-215 906.5767,-215 646.6587,-215 646.6587,-215 646.6587,-215 646.6587,-208.32 646.6587,-208.32"/>
<polygon fill="#000000" stroke="#000000" points="650.1588,-208.32 646.6587,-198.32 643.1588,-208.3201 650.1588,-208.32"/>
</g>
<!-- UserListComponent -->
<g id="node33" class="node">
<title>UserListComponent</title>
<polygon fill="#ffffb3" stroke="#000000" points="873.538,-274 744.462,-274 744.462,-238 873.538,-238 873.538,-274"/>
<text text-anchor="middle" x="809" y="-251.8" font-family="Times,serif" font-size="14.00" fill="#000000">UserListComponent</text>
</g>
<!-- UserListComponent&#45;&gt;UserModule -->
<g id="edge32" class="edge">
<title>UserListComponent&#45;&gt;UserModule</title>
<path fill="none" stroke="#000000" d="M751.8763,-237.8097C751.8763,-234.4624 751.8763,-232 751.8763,-232 751.8763,-232 632.3294,-232 632.3294,-232 632.3294,-232 632.3294,-208.1871 632.3294,-208.1871"/>
<polygon fill="#000000" stroke="#000000" points="635.8295,-208.187 632.3294,-198.1871 628.8295,-208.1871 635.8295,-208.187"/>
</g>
</g>
</svg>
